<svg viewBox="0 0 16 16" fill="currentColor" xmlns="http://www.w3.org/2000/svg">
<path fill-rule="evenodd" clip-rule="evenodd" d="M0 7.15698H2V6.15698H0V7.15698ZM3 4.15698V1.15698H2V2.15698H1V4.15698H0V5.15698H4V4.15698H3ZM5 0.156982H4V4.15698H5V0.156982ZM11 0.156982V4.15698H12V0.156982H11ZM15 4.15698V2.15698H14V1.15698H13V4.15698H12V5.15698H16V4.15698H15ZM14 7.15698H16V6.15698H14V7.15698ZM9 6.15698H7V5.15698H4V6.15698H3V10.157H7V9.15698H9V10.157H13V6.15698H12V5.15698H9V6.15698ZM10 12.157V13.157H11V15.157H12V13.157H13V11.157H9V12.157H10ZM7 11.157H9V10.157H7V11.157ZM7 12.157V11.157H3V13.157H4V15.157H5V13.157H6V12.157H7ZM9 12.157H7V13.157H6V15.157H10V13.157H9V12.157Z" fill="currentColor"/>
</svg>
