<svg viewBox="0 0 19 17" fill="currentColor" xmlns="http://www.w3.org/2000/svg">
<path fill-rule="evenodd" clip-rule="evenodd" d="M4.5 1.15698V0.156982H0.5V2.15698H5.5V1.15698H4.5ZM7.5 0.156982H5.5V1.15698H7.5V0.156982ZM7.5 2.15698H5.5V3.15698H7.5V2.15698ZM7.5 5.15698V4.15698H5.5V5.15698H7.5ZM7.5 7.15698V6.15698H5.5V7.15698H7.5ZM7.5 9.15698V8.15698H5.5V9.15698H7.5ZM12.5 9.15698V8.15698H10.5V9.15698H12.5ZM12.5 7.15698V6.15698H10.5V7.15698H12.5ZM12.5 5.15698V4.15698H10.5V5.15698H12.5ZM12.5 2.15698H10.5V3.15698H12.5V2.15698ZM12.5 0.156982H10.5V1.15698H12.5V0.156982ZM9.5 1.15698V0.156982H8.5V2.15698H10.5V1.15698H9.5ZM9.5 8.15698H10.5V7.15698H9.5V6.15698H10.5V5.15698H9.5V4.15698H10.5V3.15698H8.5V9.15698H9.5V8.15698ZM7.5 11.157V10.157H5.5V9.15698H4.5V8.15698H5.5V7.15698H4.5V6.15698H5.5V5.15698H4.5V4.15698H5.5V3.15698H0.5V13.157H6.5V11.157H7.5ZM12.5 11.157H11.5V10.157H8.5V11.157H7.5V13.157H6.5V14.157H13.5V12.157H12.5V11.157ZM0.5 16.157H5.5V15.157H6.5V14.157H0.5V16.157ZM13.5 16.157V15.157H6.5V16.157H13.5ZM14.5 16.157H18.5V15.157H14.5V16.157ZM17.5 12.157V11.157H16.5V10.157H14.5V11.157H13.5V12.157H14.5V14.157H18.5V12.157H17.5ZM13.5 10.157H12.5V11.157H13.5V10.157Z" fill="currentColor"/>
</svg>
