<svg xmlns="http://www.w3.org/2000/svg" viewBox="0 0 512 512" x="0px" y="0px"><title>equipment boot</title><path fill="currentColor"  d="M283.72,159.59H252.13a8.59,8.59,0,0,0-8.59,8.93c.67,17,1.31,37.5,1.61,58.48a7.47,7.47,0,0,0,7.55,7.39c8.16-.08,18.86-.13,30.79,0a8.76,8.76,0,0,0,8.83-8.75V168.19A8.6,8.6,0,0,0,283.72,159.59Z"></path><path d="M83.24,488.07H391.12a22.12,22.12,0,0,0,21.09-15.37c6.39-20.08,12.73-59.53-6.12-116.65a132.39,132.39,0,0,1-6.71-41.78c.07-33.54.81-96.33,5-145.38a8.58,8.58,0,0,0-8.57-9.3H321.25a8.6,8.6,0,0,0-8.59,8.6V315.8c0,36.42-19.69,69.47-51.37,86.26-15.8,8.37-34.29,13.88-54.94,16.37a38.25,38.25,0,0,1-4.64.28,37.53,37.53,0,0,1-36.82-30.2,104.28,104.28,0,0,0-6.68-21.06,10.81,10.81,0,0,0-12.94-5.91q-5,1.45-10.13,2.92S60.78,384.53,64.53,470.31A18.68,18.68,0,0,0,83.24,488.07Z"></path><path d="M446.06,43.53a13.39,13.39,0,0,0-11.86-19.6h-223a13.39,13.39,0,0,0-11.87,19.6L212.7,69.05a37.43,37.43,0,0,1,2,30.23l-8,22a13.39,13.39,0,0,0,12.57,18h207a13.4,13.4,0,0,0,12.58-18l-8-22a37.47,37.47,0,0,1,2-30.23Z"></path><path d="M237.79,331.11a8.55,8.55,0,0,0-10.88-.05,48.08,48.08,0,0,1-13.78,8.1c-9.32,3.55-19.62,7.2-31,11a7.79,7.79,0,0,0-4.7,10.49,123.62,123.62,0,0,1,7.4,23.78,17.34,17.34,0,0,0,19.11,13.85c18.16-2.19,34.26-6.95,47.85-14.15a76,76,0,0,0,11.65-7.64,12.11,12.11,0,0,0,2.2-16.41C257.69,348.68,247,338.63,237.79,331.11Z"></path><path d="M287.77,342.26a79,79,0,0,0,4.55-26.46V263.45a8.76,8.76,0,0,0-8.68-8.75c-12-.1-22.82,0-31,0a7.5,7.5,0,0,0-7.41,7.44c-.12,11.92-.41,23.45-.94,34a47.65,47.65,0,0,1-.67,5.88,11.53,11.53,0,0,0,4.27,11c9.62,7.64,21.27,18.14,30.84,30.52A5.2,5.2,0,0,0,287.77,342.26Z"></path></svg>
