<svg viewBox="0 0 20 17" fill="currentColor" xmlns="http://www.w3.org/2000/svg">
<path fill-rule="evenodd" clip-rule="evenodd" d="M15 2.15698H14V1.15698H12V0.156982H8V1.15698H6V2.15698H5V4.15698H4V14.157H5V15.157H6V16.157H8V12.157H7V10.157H6V9.15698H5V7.15698H9V11.157H11V7.15698H15V9.15698H14V10.157H13V12.157H12V16.157H14V15.157H15V14.157H16V4.15698H15V2.15698ZM2 2.15698V1.15698H1V0.156982H0V3.15698H1V5.15698H2V6.15698H3V4.15698H4V2.15698H2ZM19 0.156982V1.15698H18V2.15698H16V4.15698H17V6.15698H18V5.15698H19V3.15698H20V0.156982H19Z" fill="currentColor"/>
</svg>
