<svg viewBox="0 0 15 16" fill="currentColor" xmlns="http://www.w3.org/2000/svg">
<path fill-rule="evenodd" clip-rule="evenodd" d="M14 7.15698V5.15698H13V4.15698H12V3.15698H11V2.15698H10V1.15698H8V0.156982H2V1.15698H1V2.15698H0V10.157H1V11.157H2V12.157H6V11.157H7V10.157H3V9.15698H2V3.15698H3V2.15698H7V3.15698H9V4.15698H10V5.15698H11V6.15698H12V7.15698H13V8.15698H11V9.15698H12V10.157H14V9.15698H15V7.15698H14ZM8 10.157V11.157H9V10.157H8ZM9 10.157H11V9.15698H9V10.157ZM13 13.157V11.157H12V13.157H13ZM7 11.157V13.157H8V11.157H7ZM9 15.157H11V14.157H9V15.157ZM8 13.157V14.157H9V13.157H8ZM11 14.157H12V13.157H11V14.157ZM11 11.157H12V10.157H11V11.157ZM9 13.157H11V11.157H9V13.157Z" fill="currentColor"/>
</svg>
