<svg viewBox="0 0 14 15" fill="currentColor" xmlns="http://www.w3.org/2000/svg">
<path fill-rule="evenodd" clip-rule="evenodd" d="M13 2.15698V1.15698H12V0.156982H10V1.15698H11V4.15698H10V6.15698H9V7.15698H8V8.15698H7V9.15698H6V10.157H4V11.157H1V10.157H0V12.157H1V13.157H2V14.157H6V13.157H8V12.157H9V11.157H10V10.157H11V9.15698H12V8.15698H13V6.15698H14V2.15698H13ZM3 8.15698H4V7.15698H5V6.15698H6V5.15698H7V4.15698H8V3.15698H10V1.15698H9V0.156982H8V1.15698H6V2.15698H5V3.15698H4V4.15698H3V5.15698H2V6.15698H1V8.15698H0V9.15698H1V10.157H3V8.15698Z" fill="currentColor"/>
</svg>
