<svg xmlns="http://www.w3.org/2000/svg" viewBox="0 0 512 512" x="0px" y="0px"><title>equipment bracelet</title><path fill="currentColor"  d="M35.14,330C86.6,325.47,137,291.18,162,271.66a18.67,18.67,0,0,0,1.72-27.92L114.85,194.9a17.8,17.8,0,0,0-25.69.5C42,246.89,26.06,290.78,20.72,313.6A13.5,13.5,0,0,0,35.14,330Z"></path><path d="M473.46,119.51a95.3,95.3,0,0,1-30.8-20.46l-20.9-20.91A220.31,220.31,0,0,1,389,35.51a45.93,45.93,0,0,0-3.79-5.41c-6.07-7.36-18-4.13-19.93,5.22C358.74,67.59,334,147.23,240.59,240.59S67.67,358.72,35.37,365.22c-9.37,1.89-12.64,13.86-5.27,19.94A45.93,45.93,0,0,0,35.51,389a220.31,220.31,0,0,1,42.63,32.81l20.91,20.9a95.3,95.3,0,0,1,20.46,30.8,29.46,29.46,0,0,0,27,18.18c40.55.29,84.54-17.61,123-39.44A485.78,485.78,0,0,0,452.2,269.57c21.83-38.48,39.73-82.47,39.44-123A29.46,29.46,0,0,0,473.46,119.51Z"></path><path d="M313.6,20.72C290.78,26.06,246.89,42,195.4,89.16a17.8,17.8,0,0,0-.5,25.69l48.84,48.85A18.67,18.67,0,0,0,271.66,162C291.18,137,325.47,86.6,330,35.14A13.5,13.5,0,0,0,313.6,20.72Z"></path></svg>
