<svg viewBox="0 0 13 13" fill="currentColor" xmlns="http://www.w3.org/2000/svg">
<path fill-rule="evenodd" clip-rule="evenodd" d="M0 12.157H2V11.157H0V12.157ZM0 10.157H3V9.15698H0V10.157ZM1 4.15698H0V8.15698H3V7.15698H4V3.15698H1V4.15698ZM1 2.15698H4V0.156982H1V2.15698ZM5 2.15698H6V1.15698H7V2.15698H8V0.156982H5V2.15698ZM12 0.156982H9V2.15698H12V0.156982ZM12 4.15698V3.15698H9V7.15698H10V8.15698H13V4.15698H12ZM10 10.157H13V9.15698H10V10.157ZM11 12.157H13V11.157H11V12.157ZM5 8.15698H6V9.15698H7V8.15698H8V3.15698H5V8.15698Z" fill="currentColor"/>
</svg>
