<svg  xmlns="http://www.w3.org/2000/svg" viewBox="0 0 512 512" x="0px" y="0px"><title>equipment silmple waist armor</title><path fill="currentColor"  d="M65.92,83.29a155.15,155.15,0,0,0-4.72,18.6,9.89,9.89,0,0,0,6.4,11.18c19.62,7,59.67,18.51,121,23.8a6,6,0,0,0,6.54-6V102.94a6,6,0,0,0-5.36-6C154.25,93.22,111.67,84.87,80,75.78A11.49,11.49,0,0,0,65.92,83.29Z"></path><path d="M122.82,412.17a6.91,6.91,0,0,0,7.07-6.59c.29-6.7,1.05-18,3-31.71a7,7,0,0,0-6-7.88c-41.42-5.75-72-20.12-92-32.77a6.27,6.27,0,0,0-9.58,4.8c-.6,7.5-1,15.46-1.29,23.94a21.6,21.6,0,0,0,6.66,16.26C42.74,389.66,71.49,410.45,122.82,412.17Z"></path><path d="M47.33,267.15A6.88,6.88,0,0,0,36.79,271c-2.22,8.31-4.35,17.31-6.22,27.29A9.82,9.82,0,0,0,34.31,308c16.49,12.4,49,31.76,97.22,38.12a7,7,0,0,0,7.73-5.25A251.8,251.8,0,0,1,149.4,309a4.15,4.15,0,0,0-3.28-5.61C98.14,296.66,65.58,279.6,47.33,267.15Z"></path><path d="M164.26,279.38a131,131,0,0,1,15.43-20.11,16.69,16.69,0,0,0,4.47-11.48V172.24a8.91,8.91,0,0,0-7.66-8.83c-29.63-4.21-78.53-12.3-108-23.33a6.06,6.06,0,0,0-8.12,6.67c.55,3.15,1.25,6.32,2.12,9.49a85.46,85.46,0,0,1,2.7,34.46c-1.23,8.83-5.22,18-9.41,27.64-2.69,6.17-5,11.67-7,16.61a8.62,8.62,0,0,0,2.74,10c13.9,10.77,47.94,32.45,103.18,39A9.91,9.91,0,0,0,164.26,279.38Z"></path><path d="M286.91,139.1a7.28,7.28,0,0,0,7-7.28V107.19a7.28,7.28,0,0,0-7.76-7.26c-4.91.32-9.37.58-13.27.79a311.63,311.63,0,0,1-33.76,0c-3.9-.21-8.36-.47-13.27-.79a7.28,7.28,0,0,0-7.76,7.26v24.63a7.28,7.28,0,0,0,7,7.28C235,139.47,277,139.47,286.91,139.1Z"></path><path d="M446.08,83.29A11.49,11.49,0,0,0,432,75.78C400.33,84.87,357.75,93.22,322.26,97a6,6,0,0,0-5.36,6v27.93a6,6,0,0,0,6.54,6c61.29-5.29,101.34-16.83,121-23.8a9.89,9.89,0,0,0,6.4-11.18A155.15,155.15,0,0,0,446.08,83.29Z"></path><path d="M477.08,333.22c-20,12.65-50.56,27-92,32.77a7,7,0,0,0-6,7.88c1.94,13.73,2.7,25,3,31.71a6.91,6.91,0,0,0,7.07,6.59c51.33-1.72,80.08-22.51,92.11-33.95A21.6,21.6,0,0,0,488,362c-.25-8.48-.69-16.44-1.29-23.94A6.27,6.27,0,0,0,477.08,333.22Z"></path><path d="M380.47,346.08c48.23-6.36,80.73-25.72,97.22-38.12a9.82,9.82,0,0,0,3.74-9.66c-1.87-10-4-19-6.22-27.29a6.88,6.88,0,0,0-10.54-3.86c-18.25,12.45-50.81,29.51-98.79,36.23A4.15,4.15,0,0,0,362.6,309a251.8,251.8,0,0,1,10.14,31.84A7,7,0,0,0,380.47,346.08Z"></path><path d="M451.65,146.75a6.06,6.06,0,0,0-8.12-6.67c-29.5,11-78.4,19.12-108,23.33a8.91,8.91,0,0,0-7.66,8.83v75.55a16.69,16.69,0,0,0,4.47,11.48,131,131,0,0,1,15.43,20.11A9.91,9.91,0,0,0,357.3,284c55.24-6.55,89.28-28.23,103.18-39a8.62,8.62,0,0,0,2.74-10c-2-4.94-4.29-10.44-7-16.61-4.19-9.6-8.18-18.81-9.41-27.64a85.46,85.46,0,0,1,2.7-34.46C450.4,153.07,451.1,149.9,451.65,146.75Z"></path><path d="M207.41,171.29V388.08A48.59,48.59,0,0,0,256,436.67h0a48.59,48.59,0,0,0,48.59-48.59V171.29a7.11,7.11,0,0,0-7.11-7.11h-83A7.11,7.11,0,0,0,207.41,171.29Z"></path></svg>
