<svg xmlns="http://www.w3.org/2000/svg" viewBox="0 0 512 512" x="0px" y="0px"><title>weapon board sword</title><path fill="currentColor"  d="M218.25,364.84a16.39,16.39,0,0,0,18.22-3.34L474.36,123.61a13.43,13.43,0,0,0,3.79-7.41c4.14-26.53,2.67-64.39,1.92-78.42a6.19,6.19,0,0,0-5.85-5.85c-14-.75-51.89-2.22-78.42,1.92a13.43,13.43,0,0,0-7.41,3.79L150.61,275.43a16.17,16.17,0,0,0-3.42,18C161,324.16,185.89,350.57,218.25,364.84Z"></path><path d="M52.94,459.06l19.83,19.83a7,7,0,0,0,9.92,0L85.56,476a12.64,12.64,0,0,0,0-17.88,11,11,0,0,1-.31-15.2c16.17-17.57,41.39-35.67,57.08-46.19a24.06,24.06,0,0,1,26.47-.16c23.31,15,48,21,58.72,23a7,7,0,0,0,7.68-4L242,400.47a7,7,0,0,0-5.52-9.81c-42-5-74.18-41-74.18-41s-35.93-32.15-41-74.18a7,7,0,0,0-9.81-5.52L96.42,276.8a7,7,0,0,0-4,7.68c2,10.7,8,35.41,23,58.72a24.06,24.06,0,0,1-.16,26.47c-10.52,15.69-28.62,40.91-46.19,57.08a11,11,0,0,1-15.2-.31h0a12.64,12.64,0,0,0-17.88,0l-2.87,2.87a7,7,0,0,0,0,9.92Z"></path></svg>
