<svg xmlns="http://www.w3.org/2000/svg" xmlns:xlink="http://www.w3.org/1999/xlink" version="1.1" x="0px" y="0px" viewBox="0 0 400 400" style="enable-background:new 0 0 400 400;" xml:space="preserve"><g><path d="M304.2988281,234.8789063h-21.3427734v-99.5952148l16.4931641-15.3476563   c0.0134277-0.0123901,0.0222168-0.0275879,0.0351563-0.0401611c0.0808105-0.0778809,0.1499023-0.1656494,0.2216797-0.2520752   c0.0549316-0.0664673,0.1157227-0.1292114,0.1643066-0.1992188c0.0556641-0.0804443,0.0983887-0.1691284,0.1462402-0.2550659   c0.046875-0.0846558,0.0996094-0.1663208,0.1379395-0.2542725c0.0354004-0.081543,0.0571289-0.1691895,0.0852051-0.2543335   c0.0332031-0.0998535,0.0710449-0.197876,0.0932617-0.3000488c0.0170898-0.0789795,0.0212402-0.1616821,0.0322266-0.2427979   c0.0153809-0.1158447,0.032959-0.2307739,0.0349121-0.3475342c0.0002441-0.017334,0.005127-0.0333862,0.005127-0.0507813V75   c0-1.6567383-1.3427734-3-3-3H102.5947266c-1.6572266,0-3,1.3432617-3,3v42.7397461   c0,0.0182495,0.005127,0.0350952,0.0053711,0.0532837c0.0019531,0.1121826,0.019165,0.2226563,0.0336914,0.3339844   c0.0111084,0.0857544,0.0157471,0.1730347,0.0339355,0.2564087c0.0211182,0.0962524,0.0571289,0.1883545,0.0877686,0.2824707   c0.0297852,0.0911255,0.0533447,0.1846924,0.0914307,0.2717896c0.0360107,0.0830078,0.0861816,0.1599731,0.130127,0.2399902   c0.0500488,0.0907593,0.095459,0.18396,0.1541748,0.2687378c0.0466309,0.0671387,0.1051025,0.1272583,0.1577148,0.1911621   c0.0736084,0.0893555,0.1451416,0.1796265,0.2283936,0.2598267c0.0128174,0.0122681,0.0214844,0.0270386,0.0344238,0.0391235   l16.5048828,15.3474121v99.5949707H95.7011719c-1.6572266,0-3,1.3427734-3,3v42.8154297c0,1.6572266,1.3427734,3,3,3h15.2568359   V325c0,1.6572266,1.3427734,3,3,3h172.0839844c1.6572266,0,3-1.3427734,3-3v-41.3056641h15.2568359c1.6572266,0,3-1.3427734,3-3   v-42.8154297C307.2988281,236.2216797,305.9560547,234.8789063,304.2988281,234.8789063z M105.5947266,78h188.8105469v36.7397461   H105.5947266V78z M110.2265625,120.7397461h179.5507813l-11.0009766,10.2373047H121.2363281L110.2265625,120.7397461z    M145.8476563,222.859375c-5.8681641-1.8564453-9.8115234-7.2373047-9.8115234-13.3896484   c0-4.9970703,2.6914063-9.6582031,7.0253906-12.1630859c0.0009766-0.0009766,0.0029297-0.0019531,0.0048828-0.0029297   c2.1171875-1.2294922,4.5429688-1.8793945,7.015625-1.8793945c7.7451172,0,14.0458984,6.300293,14.0458984,14.0454102   c0,2.7460938-0.7910156,5.4042969-2.2880859,7.6865234c-1.7753906,2.7109375-4.4462891,4.7353516-7.5273438,5.7041016   C151.5673828,223.7324219,148.5644531,223.7285156,145.8476563,222.859375z M152.2207031,229.387146v5.4790649h-4.2773438   v-5.4780884c0.7080078,0.0756226,1.4200439,0.1275024,2.1386719,0.1275024   C150.7993164,229.515625,151.5117188,229.4633179,152.2207031,229.387146z M150.0820313,189.4243164   c-1.8776855,0-3.7358398,0.2713013-5.5224609,0.7828979v-35.3766479h110.8808594v60.9702148h-86.3470459   c0.6744385-2.0273438,1.0345459-4.1583862,1.0345459-6.3310547   C170.1279297,198.4165039,161.1357422,189.4243164,150.0820313,189.4243164z M158.2207031,227.7705078   c2.9932861-1.3312988,5.6369629-3.3778076,7.6633301-5.9697266h92.5563965c1.6572266,0,3-1.3427734,3-3v-66.9702148   c0-1.6567383-1.3427734-3-3-3H141.5595703c-1.6572266,0-3,1.3432617-3,3v41.2512207   c-5.2937012,3.7302246-8.5234375,9.8530273-8.5234375,16.3879395c0,8.0269775,4.7099609,15.121521,11.9072266,18.303894v7.1052856   h-18.8867188v-97.9018555h153.8994141v97.9018555H158.2207031V227.7705078z M283.0419922,322H116.9580078v-38.3056641h166.0839844   V322z M301.2988281,277.6943359h-15.2568359H113.9580078H98.7011719v-36.8154297h202.5976563V277.6943359z"/><path d="M137.3046875,264.4140625h125.4033203c1.6572266,0,3-1.3427734,3-3s-1.3427734-3-3-3H137.3046875   c-1.6572266,0-3,1.3427734-3,3S135.6474609,264.4140625,137.3046875,264.4140625z"/></g></svg>