<svg viewBox="0 0 29 29" fill="none" xmlns="http://www.w3.org/2000/svg">
<path d="M26.9287 8.28557H24.8572V4.14272H20.7144V2.07129H8.28582V4.14272H4.14296V8.28557H2.07153V20.7141H4.14296V24.857H8.28582V26.9284H20.7144V24.857H24.8572V20.7141H26.9287V8.28557Z" fill="#4AF626"/>
<path d="M18.6429 8.28571H20.7143V10.3571H18.6429V8.28571Z" fill="black"/>
<path d="M18.6429 18.6429H20.7143V20.7143H18.6429V18.6429Z" fill="black"/>
<path d="M8.28571 18.6429H10.3571V20.7143H8.28571V18.6429Z" fill="black"/>
<path d="M8.28571 8.28571H10.3571V10.3571H8.28571V8.28571Z" fill="black"/>
<path d="M22.7857 10.3571H20.7143V18.6429H22.7857V10.3571Z" fill="black"/>
<path d="M18.6429 22.7857V20.7143H10.3571V22.7857H18.6429Z" fill="black"/>
<path d="M16.5714 16.5714H12.4286V12.4286H16.5714V16.5714Z" fill="black"/>
<path d="M6.21429 18.6429H8.28571V10.3571H6.21429V18.6429Z" fill="black"/>
<path d="M10.3571 6.21429V8.28571H18.6429V6.21429H10.3571Z" fill="black"/>
<path d="M4.14286 4.14286H2.07143V8.28571H4.14286V4.14286Z" fill="black"/>
<path d="M4.14286 2.07143V4.14286H8.28571V2.07143H4.14286Z" fill="black"/>
<path d="M8.28571 0V2.07143H20.7143V0H8.28571Z" fill="black"/>
<path d="M24.8571 4.14286V2.07143H20.7143V4.14286H24.8571Z" fill="black"/>
<path d="M26.9286 4.14286H24.8571V8.28571H26.9286V4.14286Z" fill="black"/>
<path d="M26.9286 20.7143H29V8.28571H26.9286V20.7143Z" fill="black"/>
<path d="M2.07143 8.28571H0V20.7143H2.07143V8.28571Z" fill="black"/>
<path d="M2.07143 24.8571H4.14286V20.7143H2.07143V24.8571Z" fill="black"/>
<path d="M4.14286 24.8571V26.9286H8.28571V24.8571H4.14286Z" fill="black"/>
<path d="M8.28571 26.9286V29H20.7143V26.9286H8.28571Z" fill="black"/>
<path d="M24.8571 26.9286V24.8571H20.7143V26.9286H24.8571Z" fill="black"/>
<path d="M24.8571 24.8571H26.9286V20.7143H24.8571V24.8571Z" fill="black"/>
</svg>
