<svg viewBox="0 0 25 25" fill="none" xmlns="http://www.w3.org/2000/svg">
<path d="M2.08333 2.08332H0V22.9166H2.08333V2.08332Z" fill="black"/>
<path d="M2.08339 0L2.08333 2.08332L6.25002 2.08333V0H2.08339Z" fill="black"/>
<path d="M6.25002 2.08333L6.24999 4.16668L10.4167 4.16665L10.4167 2.08334L6.25002 2.08333Z" fill="black"/>
<path d="M10.4167 4.16665V6.24998L14.5834 6.24999L14.5833 4.16665H10.4167Z" fill="black"/>
<path d="M14.5834 6.24999V8.33332L18.75 8.33334L18.75 6.24999H14.5834Z" fill="black"/>
<path d="M18.75 8.33334V10.4167L22.9167 10.4166L22.9167 8.33334H18.75Z" fill="black"/>
<path d="M22.9167 14.5833H25V10.4166H22.9167V14.5833Z" fill="black"/>
<path d="M18.75 14.5833V16.6666H22.9167L22.9167 14.5833L18.75 14.5833Z" fill="black"/>
<path d="M14.5834 16.6666V18.75H18.75L18.75 16.6666L14.5834 16.6666Z" fill="black"/>
<path d="M10.4167 18.75V20.8333H14.5833L14.5834 18.75L10.4167 18.75Z" fill="black"/>
<path d="M6.24999 20.8333L6.25002 22.9166L10.4167 22.9166L10.4167 20.8333L6.24999 20.8333Z" fill="black"/>
<path d="M2.08333 22.9166L2.08339 25H6.25002V22.9166L2.08333 22.9166Z" fill="black"/>
<path d="M6.24991 2.08301H2.08325V22.9163H6.24991V20.833H10.4166V18.7497H14.5832V16.6663H18.7499V14.583H22.9166V10.4163H18.7499V8.333H14.5832V6.24967H10.4166V4.16634H6.24991V2.08301Z" fill="#4AF626"/>
</svg>
