<svg  viewBox="0 0 17 26" fill="none" xmlns="http://www.w3.org/2000/svg">
<path d="M6.5 24.375V17.875H3.25V16.25H4.875V3.25H6.5V1.625H9.75V3.25H11.375V16.25H13V17.875H9.75V24.375H6.5Z" fill="#4AF626"/>
<path fill-rule="evenodd" clip-rule="evenodd" d="M9.75 1.625V0H6.5V1.625H4.875V3.25H3.25V16.25H1.625V17.875H0V19.5H4.875V24.375H3.25V26H13V24.375H11.375V19.5H16.25V17.875H14.625V16.25H13V3.25H11.375V1.625H9.75ZM9.75 1.625V3.25H11.375V14.625H4.875V3.25H6.5V1.625H9.75ZM13 16.25V17.875H3.25V16.25H13ZM6.5 19.5H9.75V24.375H6.5V19.5Z" fill="black"/>
</svg>
