<svg viewBox="0 0 32 32" fill="none" xmlns="http://www.w3.org/2000/svg">
<path d="M2.75 18.001V29.251H29.75V18.001H27.5V9.00098H20.75V2.25098H11.75V9.00098H5V18.001H2.75Z" fill="#4AF626"/>
<path d="M29.75 29.25H32V18H29.75V29.25Z" fill="black"/>
<path d="M2.75 29.25V31.5H29.75V29.25H2.75Z" fill="black"/>
<path d="M2.75 18H0.5V29.25H2.75V18Z" fill="black"/>
<path d="M5 9H2.75V18H29.75V9H27.5V15.75H5V9Z" fill="black"/>
<path d="M11.75 2.25H9.5V6.75H5V9H9.5V11.25H11.75V9H20.75V11.25H23V9H27.5V6.75H23V2.25H20.75V6.75H11.75V2.25Z" fill="black"/>
<path d="M11.75 0V2.25H20.75V0H11.75Z" fill="black"/>
</svg>
