<svg viewBox="0 0 33 33" fill="none" xmlns="http://www.w3.org/2000/svg">
<path d="M2.35714 23.5714H4.71429V25.9286H2.35714V23.5714Z" fill="black"/>
<path d="M2.35714 23.5714H4.71429V25.9286H2.35714V23.5714Z" fill="black"/>
<path d="M7.07143 33H9.42857V28.2857H28.2857V33H30.6429V28.2857H33V25.9286H4.71429V28.2857H7.07143V33Z" fill="black"/>
<path d="M4.71429 7.07143H2.35714V21.2143H4.71429V7.07143Z" fill="black"/>
<path d="M5.1517e-08 1.03034e-07L0 2.35714L4.71429 2.35714V7.07143H30.6429V4.71429H7.07143V0L5.1517e-08 1.03034e-07Z" fill="black"/>
<path d="M30.6429 21.2143H33V7.07143H30.6429V21.2143Z" fill="black"/>
<path d="M30.6429 23.5714V21.2143H4.71429V23.5714H30.6429Z" fill="black"/>
<path d="M30.6429 7.07129H4.71436V21.2141H30.6429V7.07129Z" fill="#33FF33"/>
</svg>
