<svg viewBox="0 0 30 30" fill="none" xmlns="http://www.w3.org/2000/svg">
<path d="M27.6928 4.61523H4.5237L4.61603 11.5383H2.30835V20.769H4.5237L4.61603 23.0767H6.92371V25.3844H11.5391V27.692H20.7698V25.3844H25.3852V23.0767H27.6928V20.769H30.0005V11.5383H27.6928V4.61523Z" fill="#33FF33"/>
<path d="M9.23073 16.1538V18.4615H11.5384V16.1538H9.23073Z" fill="black"/>
<path d="M18.462 16.1538L18.4615 18.4615H20.7697L20.7691 16.1538H18.462Z" fill="black"/>
<path fill-rule="evenodd" clip-rule="evenodd" d="M27.6927 11.5385L27.6922 0L23.0774 0.00014085V2.30782H20.7697V4.6155L9.23073 4.61536V2.30768H6.92304V0H2.30832L2.30768 11.5384L0 11.5385L0.000633824 20.7693L2.30832 20.7691V23.0768H4.616V25.3845H6.92304V27.6922H11.539V29.9999L18.462 30V27.6923H23.0774L23.0768 25.3845L25.3851 25.3846L25.3845 23.077H27.6922V20.7693H30.0004V11.5385H27.6927ZM27.6927 11.5385L27.6922 20.7693H25.3851L25.3845 23.077H23.0774L23.0768 25.3845H18.462V27.6923H16.1543V23.0768H17.3082V20.7691H12.6928V23.077L13.8461 23.0768V27.6922H11.539V25.3845H6.92304V23.0768H4.616V20.7691H2.30832L2.30768 11.5384L4.61536 11.5385L4.61572 4.61536H6.92304V6.92304H9.23073V9.23073H11.5384V6.92304H13.8461V9.23073H16.1543V6.92304H18.462V9.23087L20.7691 9.23073L20.7697 6.92319H23.0774V4.6155L25.3851 4.61536V11.5385H27.6927Z" fill="black"/>
</svg>
