<svg width="23" height="19" viewBox="0 0 23 19" fill="none" xmlns="http://www.w3.org/2000/svg">
<path d="M21.5625 12.9375H20.125V14.375H21.5625V12.9375Z" fill="black"/>
<path d="M2.87505 1.4375H1.43756V2.87499H2.87505V1.4375Z" fill="black"/>
<path d="M21.5625 1.4375H20.125V2.87499H21.5625V1.4375Z" fill="black"/>
<path d="M4.31255 15.8125H2.87505V17.25H4.31255V15.8125Z" fill="black"/>
<path d="M2.87505 17.25H1.43756V18.6875H2.87505V17.25Z" fill="black"/>
<path d="M6.10352e-05 17.25H1.43756V2.87499H6.10352e-05V17.25Z" fill="black"/>
<path d="M20.125 1.4375V0H2.87505V1.4375H20.125Z" fill="black"/>
<path d="M21.5625 12.9375H23V2.87499H21.5625V12.9375Z" fill="black"/>
<path d="M20.125 15.8125V14.375H4.31255V15.8125H20.125Z" fill="black"/>
<path d="M2.87504 17.25H1.43755V2.875H2.87504V1.4375H20.125V2.875H21.5625V12.9375H20.125V14.375H4.31254V15.8125H2.87504V17.25Z" fill="#33FF33"/>
</svg>
