<svg viewBox="0 0 19 13" fill="currentColor" xmlns="http://www.w3.org/2000/svg">
<path fill-rule="evenodd" clip-rule="evenodd" d="M8.5 9.15698H2.5V10.157H9.5V9.15698H10.5V8.15698H11.5V7.15698H12.5V6.15698H13.5V5.15698H14.5V4.15698H15.5V3.15698H16.5V1.15698H15.5V0.156982H8.5V1.15698H7.5V2.15698H6.5V3.15698H5.5V4.15698H4.5V5.15698H3.5V6.15698H2.5V7.15698H1.5V8.15698H8.5V9.15698ZM15.5 4.15698V5.15698H14.5V6.15698H13.5V7.15698H12.5V8.15698H11.5V9.15698H10.5V10.157H9.5V11.157H1.5V12.157H11.5V11.157H12.5V10.157H13.5V9.15698H14.5V8.15698H15.5V7.15698H16.5V6.15698H17.5V5.15698H18.5V4.15698H15.5ZM0.5 8.15698V11.157H1.5V8.15698H0.5Z" fill="currentColor"/>
</svg>
