<svg viewBox="0 0 30 30" fill="none" xmlns="http://www.w3.org/2000/svg">
<path d="M16.875 3.75003L18.75 3.75005L18.75 1.87503H16.875V3.75003Z" fill="black"/>
<path d="M13.125 3.75003L11.25 3.75005L11.25 1.87503H13.125V3.75003Z" fill="black"/>
<path d="M26.25 13.125H28.125V11.25L26.25 11.2501L26.25 13.125Z" fill="black"/>
<path d="M3.75 13.125H1.875V11.25H3.75V13.125Z" fill="black"/>
<path d="M26.25 18.75H28.125L28.125 16.8751L26.25 16.875V18.75Z" fill="black"/>
<path d="M3.75 18.75H1.875L1.875 16.8751L3.75 16.875V18.75Z" fill="black"/>
<path d="M16.875 28.125L18.75 28.125L18.75 26.25L16.875 26.25L16.875 28.125Z" fill="black"/>
<path d="M13.125 28.125L11.25 28.125L11.25 26.25L13.125 26.25L13.125 28.125Z" fill="black"/>
<path d="M20.625 11.25H18.75V18.75H20.625V11.25Z" fill="black"/>
<path d="M18.75 11.25L18.75 9.37505H11.25L11.25 11.25H18.75Z" fill="black"/>
<path d="M11.25 11.25H9.37499V18.75H11.25V11.25Z" fill="black"/>
<path d="M18.75 20.625L18.75 18.75H11.25L11.25 20.625H18.75Z" fill="black"/>
<path d="M5.62499 24.375L5.625 26.25H11.25V24.375L5.62499 24.375Z" fill="black"/>
<path d="M3.74999 24.375H5.62499V18.75L3.75 18.75L3.74999 24.375Z" fill="black"/>
<path d="M1.875 13.125L0 13.125V16.8751H1.875L1.875 13.125Z" fill="black"/>
<path d="M3.75 11.25L5.62499 11.2501L5.625 5.62505L3.74999 5.625L3.75 11.25Z" fill="black"/>
<path d="M11.25 5.62505V3.75005H5.625V5.62505H11.25Z" fill="black"/>
<path d="M16.875 1.87503L16.875 0H13.125L13.125 1.87503H16.875Z" fill="black"/>
<path d="M18.75 3.75005V5.62505H24.375V3.75005H18.75Z" fill="black"/>
<path d="M24.375 11.2501H26.25V5.625L24.375 5.62505L24.375 11.2501Z" fill="black"/>
<path d="M30 13.125L28.125 13.125L28.125 16.8751H30V13.125Z" fill="black"/>
<path d="M24.375 24.375H26.25L26.25 18.75L24.375 18.75V24.375Z" fill="black"/>
<path d="M24.375 26.25L24.375 24.375L18.75 24.375V26.25H24.375Z" fill="black"/>
<path d="M16.875 30V28.125H13.125V30H16.875Z" fill="black"/>
<path fill-rule="evenodd" clip-rule="evenodd" d="M5.625 5.625H11.25V3.75H13.125V1.875H16.875V3.75H18.75V5.625H24.375V11.25H26.25V13.125H28.125V16.875H26.25V18.75H24.375V24.375H18.75V26.25H16.875V28.125H13.125V26.25H11.25V24.375H5.625V18.75H3.75V16.875H1.875V13.125H3.75V11.25H5.625V5.625ZM11.25 9.375V11.25H9.375V18.75H11.25V20.625H18.75V18.75H20.625V11.25H18.75V9.375H11.25Z" fill="#4AF626"/>
</svg>
