<svg viewBox="0 0 29 29" fill="none" xmlns="http://www.w3.org/2000/svg">
<path d="M9.0625 1.8125H19.9375V3.625H23.5625V5.4375H25.375V9.0625H27.1875V19.9375H25.375V23.5625H23.5625V25.375H19.9375V27.1875H9.0625V25.375H5.4375V23.5625H3.625V19.9375H1.8125V9.0625H3.625V5.4375H5.4375V3.625H9.0625V1.8125Z" fill="#4AF626"/>
<path d="M19.9375 0V1.8125H9.0625V0H19.9375Z" fill="black"/>
<path d="M5.4375 3.625V1.8125H9.0625V3.625H5.4375Z" fill="black"/>
<path d="M3.625 5.4375V3.625H5.4375V5.4375H3.625Z" fill="black"/>
<path d="M1.8125 9.0625V5.4375H3.625V9.0625H1.8125Z" fill="black"/>
<path d="M1.8125 19.9375H0V9.0625H1.8125V19.9375Z" fill="black"/>
<path d="M3.625 23.5625H1.8125V19.9375H3.625V23.5625Z" fill="black"/>
<path d="M5.4375 25.375H3.625V23.5625H5.4375V25.375Z" fill="black"/>
<path d="M9.0625 27.1875H5.4375V25.375H9.0625V27.1875Z" fill="black"/>
<path d="M19.9375 27.1875V29H9.0625V27.1875H19.9375Z" fill="black"/>
<path d="M23.5625 25.375V27.1875H19.9375V25.375H23.5625Z" fill="black"/>
<path d="M25.375 23.5625V25.375H23.5625V23.5625H25.375Z" fill="black"/>
<path d="M27.1875 19.9375V23.5625H25.375V19.9375H27.1875Z" fill="black"/>
<path d="M27.1875 9.0625H29V19.9375H27.1875V9.0625Z" fill="black"/>
<path d="M25.375 5.4375H27.1875V9.0625H25.375V5.4375Z" fill="black"/>
<path d="M23.5625 3.625H25.375V5.4375H23.5625V3.625Z" fill="black"/>
<path d="M23.5625 3.625V1.8125H19.9375V3.625H23.5625Z" fill="black"/>
<path d="M9.0625 19.9375H10.875V21.75H12.6875V23.5625H14.5V21.75H18.125V19.9375H19.9375V16.3125H18.125V14.5H14.5V12.6875H10.875V9.0625H18.125V10.875H19.9375V9.0625H18.125V7.25H16.3125V5.4375H14.5V7.25H10.875V9.0625H9.0625V12.6875H10.875V14.5H14.5V16.3125H18.125V19.9375H10.875V18.125H9.0625V19.9375Z" fill="black"/>
</svg>
