<svg viewBox="0 0 27 27" fill="none" xmlns="http://www.w3.org/2000/svg">
<path d="M2.02503 24.9755H24.9751V2.02539H2.02503V24.9755Z" fill="#4AF626"/>
<path d="M18.9 10.125H16.875V12.15H18.9V10.125Z" fill="black"/>
<path d="M18.9 14.175H16.875V16.2H18.9V14.175Z" fill="black"/>
<path d="M16.875 8.10002H14.85V10.125H16.875V8.10002Z" fill="black"/>
<path d="M16.875 16.2H14.85V18.2251H16.875V16.2Z" fill="black"/>
<path d="M10.4625 10.125H8.43744V12.15H10.4625V10.125Z" fill="black"/>
<path d="M10.4625 14.175H8.43744V16.2H10.4625V14.175Z" fill="black"/>
<path d="M8.43744 8.10002H6.41244V10.125H8.43744V8.10002Z" fill="black"/>
<path d="M8.43744 16.2H6.41244V18.2251H8.43744V16.2Z" fill="black"/>
<path d="M20.925 12.15H18.9V14.175H20.925V12.15Z" fill="black"/>
<path d="M12.4875 12.15H10.4625V14.175H12.4875V12.15Z" fill="black"/>
<path d="M2.02492 24.9751H-8.15392e-05V2.02501H2.02492V24.9751Z" fill="black"/>
<path d="M24.975 0V2.02501L2.02492 2.02501V0H24.975Z" fill="black"/>
<path d="M24.975 2.02501H27V24.9751H24.975V2.02501Z" fill="black"/>
<path d="M24.975 24.9751V27.0001H2.02492V24.9751H24.975Z" fill="black"/>
</svg>
