<svg viewBox="0 0 9 15" xmlns="http://www.w3.org/2000/svg">
<path d="M0.419922 7.54238L0.468894 6.94238H1.12158L1.17693 7.54238H0.419922Z" fill="#33FF33"/>
<path d="M4.52215 0.428711C4.71393 0.428711 4.90571 0.428711 5.10776 0.428711C5.10776 0.594098 5.1077 0.752252 5.10778 0.910405C5.10785 1.02858 5.10793 1.02866 5.22615 1.02874C5.36768 1.02883 5.5092 1.02876 5.65799 1.02876C5.65981 1.07163 5.66236 1.10428 5.6624 1.13693C5.66272 1.46727 5.66453 1.79762 5.66122 2.12792C5.66047 2.20341 5.68182 2.23 5.75673 2.22722C5.90183 2.22183 6.04734 2.22867 6.1925 2.22422C6.25959 2.22216 6.27953 2.24664 6.27902 2.3139C6.27654 2.64116 6.2778 2.96844 6.27816 3.29572C6.27818 3.31951 6.28156 3.34329 6.28408 3.3763C6.46443 3.3763 6.64117 3.3763 6.82966 3.3763C6.82966 3.77814 6.82966 4.17069 6.82966 4.57267C7.01781 4.57267 7.19439 4.57267 7.38425 4.57267C7.38425 4.96779 7.65344 5.04606 7.65344 5.443C7.85453 5.443 7.91932 5.70014 8.11606 5.70014C8.11606 6.10133 8.41098 6.29301 8.41098 6.69667C8.61589 6.69667 8.45549 6.943 8.66278 6.943C8.66278 7.14212 8.57867 7.33023 8.56955 7.52294C8.36627 7.53003 8.1721 7.53003 7.97014 7.53003C7.97014 7.33225 7.97014 7.14989 7.97014 6.95552C7.58797 6.95552 7.0298 6.94549 6.64409 6.94549C6.64409 6.74588 6.82792 6.56834 6.82792 6.37292C6.43547 6.37292 5.85698 6.37292 5.46652 6.37292C5.46652 6.16442 5.66408 5.96409 5.66408 5.7525C5.4758 5.7525 5.29686 5.7525 5.10778 5.7525C5.10778 5.54738 5.08802 5.42199 5.08802 5.22871C4.89507 5.22871 4.73233 5.16025 4.54657 5.15803C4.53611 5.15275 4.52893 5.14969 4.52145 5.1379C4.521 4.65789 4.52057 4.18662 4.52072 3.71534C4.52105 2.6198 4.52166 1.52426 4.52215 0.428711Z" fill="#33FF33"/>
<path d="M4.54235 0.470721C4.5502 1.56438 4.62679 2.63584 4.62646 3.72837C4.62632 4.19834 4.63438 4.65748 4.62646 5.13675C4.44458 5.14605 4.30565 5.44265 4.12179 5.44265C4.12179 5.64999 4.12179 5.6129 4.12179 5.80198C4.10613 5.80806 3.8899 5.73652 3.88454 5.73656C3.7767 5.73752 3.66885 5.73841 3.561 5.73857C3.36807 5.73886 3.49094 6.16676 3.49095 6.36622C3.49095 6.50521 3.36808 6.2161 3.36808 6.36622C2.97649 6.36622 2.3598 7.45694 1.97693 7.45694C1.97693 7.62366 2.21237 6.68828 2.21803 6.84323C2.22091 6.92218 2.19075 6.94356 2.12215 6.94262C1.78126 6.93795 1.44033 6.9357 1.09942 6.93259C1.09775 6.55436 1.09661 6.17612 1.09375 5.7979C1.09337 5.74673 1.11728 5.73737 1.15877 5.7378C1.29304 5.73917 1.42732 5.73827 1.5616 5.73826C1.59324 5.73825 1.62488 5.73825 1.66727 5.73825C1.66727 5.34784 1.66727 4.9651 1.66727 4.56611C1.80171 4.56611 1.92588 4.5661 2.05005 4.56611C2.21569 4.56611 2.21569 4.56611 2.21569 4.39223C2.21568 4.09016 2.21568 3.78808 2.21568 3.48601C2.21568 3.45324 2.21568 3.42047 2.21568 3.3745C2.37006 3.3745 2.51494 3.3746 2.65981 3.37446C2.77393 3.37435 2.77407 3.37422 2.77409 3.25151C2.77415 2.94638 2.77408 2.64125 2.77406 2.33613C2.77406 2.30311 2.77406 2.2701 2.77406 2.22226C2.9149 2.22226 3.04796 2.22226 3.18102 2.22226C3.36993 2.22226 3.36993 2.22226 3.36993 2.02691C3.36993 1.72484 3.37225 1.42273 3.36828 1.12071C3.3673 1.04614 3.39073 1.02648 3.45825 1.02928C3.57774 1.03423 3.69776 1.0263 3.81717 1.03218C3.89616 1.03608 3.91787 1.00445 3.91557 0.925996C3.91085 0.764911 3.95356 0.6459 3.95356 0.470703C4.13455 0.470703 4.54235 0.470721 4.54235 0.470721Z" fill="#33FF33"/>
<path d="M1.11331 6.91384C1.45799 6.91671 1.80239 6.91893 2.14675 6.92354C2.21605 6.92447 2.24652 6.90338 2.2436 6.82555C2.23789 6.67279 2.24192 6.51965 2.24192 6.35528C2.6287 6.35528 2.92882 6.25686 3.32439 6.25686C3.32439 6.10886 3.40538 6.07024 3.40537 5.93321C3.40536 5.73656 3.40536 5.73677 3.60026 5.73648C3.70921 5.73632 3.81815 5.73544 3.9271 5.7345C3.93251 5.73445 3.93789 5.73067 3.95371 5.72468C3.95371 5.53826 3.95371 5.34757 3.95371 5.14315C4.13945 5.14315 4.31502 5.14315 4.49904 5.14258C4.51463 5.14501 4.70069 5.24895 4.71224 5.26274C4.71704 5.30358 4.6701 5.49824 4.6701 5.52829C4.67018 7.2207 4.53889 8.64755 4.53916 10.34C4.53916 10.3789 4.54233 10.4179 4.54402 10.4569C4.35287 10.4569 4.16173 10.4569 3.95913 10.4569C3.95913 10.2457 3.95913 10.0373 3.95913 9.81838C3.76982 9.81838 3.59164 9.81838 3.40574 9.81838C3.40574 9.6286 3.40574 9.44938 3.40574 9.25817C3.01687 9.25817 2.62044 9.25817 2.23086 9.25817C2.23086 9.04927 2.2155 8.84208 2.23086 8.65686C1.8501 8.65686 1.4931 8.64308 1.10989 8.64308C1.10989 8.44981 1.10989 8.26818 1.10989 8.0778C0.905845 8.0778 0.676474 8.0778 0.470535 8.0778C0.470535 7.88104 0.462042 7.68343 0.47066 7.48583C0.671859 7.47624 0.909035 7.48583 1.11247 7.48583C1.11247 7.2851 1.11247 7.09979 1.11247 6.91448C1.11247 6.91448 1.11301 6.91403 1.11331 6.91384Z" fill="#33FF33"/>
<path d="M4.49939 10.4569C4.48959 10.4166 4.49948 10.3673 4.49948 10.3283C4.32871 8.62217 4.54386 6.94589 4.54378 5.25014C4.33129 5.25014 4.54306 5.18992 4.54151 5.15119C4.72337 5.14258 4.90639 5.14258 5.0999 5.14258C5.0999 5.33298 5.34064 5.24051 5.34064 5.44258C5.53028 5.44258 5.46899 5.72602 5.65783 5.72602C5.65783 5.93445 5.65783 6.1318 5.65783 6.3372C6.04943 6.3372 6.43145 6.3372 6.82506 6.3372C6.82506 6.5297 6.82506 6.7145 6.82506 6.91113C7.2119 6.91113 7.58731 6.91113 7.97061 6.91113C7.97061 7.10261 7.97061 7.28224 7.97061 7.47708C8.17316 7.47708 8.36788 7.47708 8.57076 7.47863C8.5789 7.67254 8.66302 7.8986 8.66302 8.09972C8.46157 8.09972 8.49019 8.44258 8.2845 8.44258C8.2845 8.63354 7.97394 8.43942 7.97394 8.63125C7.59037 8.63125 7.36626 9.08544 6.98076 9.08544C6.98076 9.29465 6.81245 9.13567 6.81245 9.34258C6.42027 9.34258 6.05469 9.41439 5.66413 9.41439C5.66413 9.60362 5.92938 9.66331 5.92938 9.85686C5.73934 9.85686 5.90819 9.89972 5.7191 9.89972C5.7191 10.1175 5.10277 10.4569 5.10277 10.4569C4.91905 10.4569 4.68442 10.458 4.49939 10.4569Z" fill="#33FF33"/>
<path d="M4.5418 14.5715C4.35056 14.5715 4.07116 14.5715 3.8689 14.5715C3.8689 14.3715 3.70068 14.2194 3.70068 14.0144C3.54032 14.0144 3.64701 13.9708 3.49764 13.9762C3.42394 13.9789 3.10874 13.962 3.11189 13.8858C3.11752 13.7499 3.1077 13.6362 3.11189 13.5001C3.1139 13.435 3.04646 13.4558 2.98573 13.4573C2.83517 13.4608 3.02289 13.3891 2.87229 13.3918C2.81841 13.3927 2.6481 13.427 2.64928 13.3715C2.65216 13.2354 2.51658 13.036 2.52311 12.9001C2.52743 12.8103 2.78259 12.7855 2.6901 12.7902C2.54346 12.7977 2.3962 12.7922 2.23649 12.7922C2.23649 12.6296 1.97101 12.496 1.97638 12.343C1.97903 12.2673 2.21799 12.223 2.14387 12.2266C2.02304 12.2324 1.90143 12.2227 1.78075 12.23C1.69899 12.235 1.47081 12.3036 1.47171 12.2266C1.47556 11.8937 1.19263 11.6473 1.19607 11.3144C1.19682 11.2413 1.67134 11.026 1.59468 11.0296C1.46205 11.0359 1.32879 11.0276 1.19607 11.0328C1.12474 11.0356 0.879317 11.4788 0.882922 11.4001C0.88901 11.2672 0.66964 10.9332 0.672642 10.8001C0.673898 10.7444 0.473966 10.7993 0.420308 10.8001C0.246845 10.8026 0.347362 10.5384 0.167969 10.5384C0.167969 10.1305 0.336193 9.44701 0.336193 9.04297C0.727715 9.04297 1.3793 9.08583 1.78075 9.08583C1.78075 9.22929 1.68542 9.54179 1.68542 9.68285C1.68542 9.71615 1.68864 9.74984 1.68475 9.78265C1.67668 9.85063 2.14158 9.19858 2.01844 9.68285C2.31968 9.67956 2.348 9.68285 2.64928 9.68285C2.68143 9.68285 2.94516 9.55725 2.98573 9.55725C3.02726 9.72467 3.24956 9.56519 3.23806 9.72868C3.23245 9.80839 2.91157 10.1587 2.98573 10.1573C3.17383 9.95843 3.33981 10.3315 3.4904 10.3287C3.54368 10.3277 3.40691 10.4823 3.40566 10.5384C3.40263 10.6746 3.40822 10.8109 3.40322 10.9469C3.40063 11.0171 3.46823 10.8006 3.53246 10.8001C3.87801 10.7977 4.18886 10.919 4.5418 10.9287C4.54865 11.3221 4.53981 11.8194 4.53994 12.2035C4.54022 12.9928 4.54114 13.7822 4.5418 14.5715Z" fill="#33FF33"/>
<path d="M4.55128 14.5709C4.45704 13.9715 4.54142 12.9918 4.54113 12.2026C4.541 11.8186 4.4555 11.0206 4.45705 10.6286C4.82385 10.6205 5.04619 10.9286 5.42435 10.9286C5.42435 10.7657 5.47276 10.7357 5.46641 10.5857C5.46281 10.5009 5.55243 10.2821 5.63463 10.2857C5.77744 10.2919 5.91226 10.1955 6.05519 10.2C6.12351 10.2021 5.97243 10.2229 5.97108 10.1571C5.96767 9.99159 6.09722 9.90267 6.09722 9.72857C6.47043 9.72857 6.68865 9.42857 7.06451 9.42857C7.06451 9.22008 7.23273 9.24906 7.23273 9.04286C7.63771 9.04286 8.18092 9 8.57853 9C8.57853 9.40114 8.5785 10.0559 8.5785 10.4634C8.38073 10.4634 8.18544 10.4634 7.97777 10.4634C7.97777 10.6554 7.97777 10.8378 7.97777 11.0312C7.7766 11.0312 7.58763 11.0312 7.3902 11.0312C7.3902 11.4315 7.3902 11.8208 7.3902 12.2225C7.20208 12.2225 7.02226 12.2225 6.83353 12.2225C6.83353 12.415 6.83353 12.5953 6.83353 12.7873C6.642 12.7873 6.45906 12.7873 6.26517 12.7873C6.26517 12.9909 6.26517 13.183 6.26517 13.3852C6.05887 13.3852 5.86345 13.3852 5.65658 13.3852C5.65658 13.5841 5.65658 13.773 5.65658 13.9715C5.4679 13.9715 5.29044 13.9715 5.10218 13.9715C5.10218 14.1728 5.10218 14.3646 5.10218 14.5714C4.91425 14.5714 4.73691 14.5714 4.55128 14.5709Z" fill="#33FF33"/>
<path d="M8.38911 8.63583C8.38866 8.64913 8.38822 8.66242 8.38334 8.68438C8.37743 8.71235 8.37595 8.73167 8.37446 8.75098C8.41504 8.74396 8.45561 8.73694 8.49619 8.72992C8.50378 8.72913 8.51137 8.72835 8.52538 8.73508C8.56521 8.75886 8.5977 8.77772 8.63235 8.79044C8.65328 8.79812 8.67846 8.79304 8.70023 8.79921C8.86911 8.84713 8.95543 8.97058 8.97301 9.13952C8.98935 9.29663 8.99513 9.45568 8.99356 9.61375C8.9906 9.9127 9.02003 10.2132 8.97325 10.5103C8.94327 10.7007 8.88085 10.83 8.61931 10.8527C8.597 10.8546 8.57573 10.8671 8.55353 10.873C8.52169 10.8814 8.48735 10.8992 8.45778 10.8934C8.38345 10.8787 8.37897 10.9134 8.37089 10.9765C8.35794 11.0775 8.34388 11.1858 8.29799 11.2734C8.21138 11.4387 8.02754 11.4152 7.87974 11.4516C7.82501 11.465 7.79882 11.4724 7.8021 11.5293C7.80694 11.6134 7.82128 11.6981 7.8159 11.7815C7.80314 11.9791 7.78687 12.1768 7.76079 12.3729C7.74466 12.4941 7.59408 12.6083 7.4722 12.6143C7.40756 12.6175 7.34272 12.6239 7.27906 12.6352C7.26171 12.6382 7.23828 12.6625 7.23494 12.6804C7.22379 12.7402 7.21981 12.8015 7.2143 12.8623C7.19941 13.0265 7.10688 13.1356 6.94965 13.1721C6.86248 13.1923 6.77505 13.2114 6.69249 13.2299C6.6751 13.3314 6.66391 13.4218 6.64356 13.5101C6.60409 13.6812 6.47601 13.7881 6.29946 13.7804C6.11175 13.7723 6.07117 13.7999 6.05702 13.9919C6.0568 13.9949 6.05733 13.9981 6.05682 14.001C6.02464 14.1847 6.00995 14.3125 5.76326 14.3609C5.70197 14.373 5.64064 14.3856 5.57878 14.3935C5.52236 14.4008 5.50856 14.4342 5.50387 14.4863C5.49609 14.5729 5.49893 14.6679 5.46324 14.7423C5.42719 14.8175 5.36039 14.903 5.2881 14.9289C5.1594 14.9749 5.02466 15.0079 4.87804 14.9984C4.61222 14.9811 4.34447 14.9895 4.07771 14.9954C3.97066 14.9978 3.87099 14.9735 3.77144 14.9438C3.72493 14.93 3.67663 14.9088 3.6396 14.8779C3.52626 14.7833 3.51008 14.6496 3.50682 14.5103C3.50595 14.4734 3.48906 14.4142 3.46483 14.4049C3.3997 14.3797 3.32702 14.37 3.25661 14.3652C3.15931 14.3585 3.03232 14.2866 3.01185 14.2095C2.98014 14.0899 2.95392 13.9689 2.92886 13.8444C2.9169 13.8257 2.90145 13.8111 2.87815 13.7959C2.74553 13.7754 2.62075 13.7556 2.49491 13.7301C2.47622 13.7051 2.45859 13.6859 2.43814 13.6621C2.42576 13.6536 2.41621 13.6496 2.4065 13.6384C2.38199 13.5082 2.35905 13.3848 2.33178 13.2624C2.32766 13.2439 2.30566 13.2199 2.28803 13.2158C2.19171 13.1931 2.09416 13.1759 1.99181 13.1543C1.96643 13.1414 1.94628 13.1309 1.92291 13.116C1.8989 13.0963 1.87811 13.0811 1.85571 13.0592C1.82991 12.9487 1.80262 12.8454 1.78271 12.7406C1.77142 12.6812 1.76866 12.6389 1.68642 12.6318C1.55947 12.6209 1.42383 12.6187 1.32019 12.5138C1.3136 12.5011 1.30761 12.4934 1.30044 12.4793C1.28198 12.4292 1.25306 12.3866 1.24933 12.3419C1.22829 12.0886 1.21302 11.8348 1.19654 11.5811C1.19428 11.5462 1.19623 11.5111 1.19623 11.4714C1.1582 11.4696 1.13217 11.4683 1.10307 11.463C1.09063 11.4556 1.08129 11.4521 1.0686 11.4431C0.990086 11.4287 0.914903 11.42 0.837215 11.406C0.818278 11.3871 0.801847 11.3735 0.782618 11.3554C0.770343 11.3473 0.760864 11.3436 0.750896 11.3357C0.750407 11.3313 0.748397 11.3228 0.744996 11.3178C0.723586 11.2856 0.696171 11.2607 0.689341 11.2309C0.669076 11.1424 0.658111 11.0517 0.640807 10.9625C0.636129 10.9384 0.625892 10.8996 0.611303 10.8959C0.541337 10.8782 0.468769 10.8595 0.397561 10.8611C0.277383 10.8638 0.113413 10.7723 0.0858303 10.6536C0.0490681 10.4953 0.0104959 10.3333 0.00717061 10.1721C5.68741e-05 9.82727 -0.0117278 9.48188 0.0508363 9.13798C0.091854 8.91251 0.172275 8.81999 0.399052 8.79549C0.484196 8.78629 0.567414 8.75854 0.650816 8.7394C0.647635 8.69171 0.640894 8.64994 0.643004 8.60864C0.646341 8.54333 0.616361 8.52607 0.557224 8.52543C0.486757 8.52467 0.415075 8.51998 0.346273 8.50543C0.207887 8.47614 0.0946891 8.40782 0.0657416 8.25343C0.0395958 8.11398 0.0121719 7.97308 0.00579204 7.83186C-0.00417094 7.61134 0.00107818 7.38996 0.00421676 7.16901C0.00543042 7.08358 0.0135068 6.99749 0.0271922 6.91318C0.052874 6.75495 0.0785976 6.58888 0.251637 6.52436C0.33827 6.49207 0.434757 6.48279 0.52777 6.47429C0.594124 6.46823 0.623842 6.44523 0.625071 6.37566C0.628885 6.15988 0.627661 5.94349 0.644209 5.7286C0.666021 5.44533 0.722323 5.38233 0.934917 5.30908C0.993267 5.28897 1.05676 5.27667 1.11818 5.27545C1.20074 5.27381 1.21504 5.23248 1.21288 5.16001C1.2056 4.91526 1.19803 4.67107 1.24539 4.42762C1.27813 4.25933 1.4237 4.13115 1.59656 4.14245C1.70057 4.14924 1.76143 4.08992 1.76435 3.98569C1.77099 3.74851 1.76724 3.50995 1.79253 3.27473C1.81229 3.09096 1.94196 2.95644 2.12103 2.95518C2.2957 2.95396 2.33367 2.92476 2.33361 2.75091C2.33357 2.63587 2.32881 2.52056 2.33494 2.40586C2.34094 2.29382 2.34392 2.17805 2.37518 2.0722C2.39706 1.99813 2.45077 1.91165 2.51436 1.87776C2.61179 1.82584 2.72866 1.80463 2.8398 1.78917C2.91775 1.77832 2.94149 1.74803 2.93988 1.67409C2.93698 1.54096 2.93649 1.40764 2.93981 1.27452C2.94262 1.16155 2.94414 1.04748 2.96112 0.936257C2.97781 0.826943 3.02184 0.719935 3.13056 0.675842C3.22612 0.637083 3.33046 0.600782 3.43104 0.600475C3.53589 0.600156 3.49981 0.542949 3.50554 0.491106C3.51878 0.371359 3.51895 0.251081 3.6066 0.148674C3.7222 0.0136087 3.88159 0.0200119 4.02566 0.0107779C4.30056 -0.00684268 4.57785 0.0160997 4.85307 0.00126237C4.99172 -0.00621269 5.11794 0.0202942 5.24533 0.060003C5.29153 0.0744032 5.34049 0.0932556 5.37693 0.123979C5.48887 0.218357 5.49956 0.355179 5.50473 0.489749C5.50722 0.554388 5.49893 0.607991 5.59226 0.608771C5.66029 0.60934 5.72735 0.64466 5.79616 0.652524C5.94002 0.668965 6.01083 0.760197 6.03674 0.891993C6.05693 0.994741 6.06954 1.10019 6.07325 1.20489C6.07915 1.37118 6.07216 1.53793 6.07745 1.70426C6.07833 1.73193 6.10937 1.77544 6.1343 1.78237C6.21516 1.80485 6.30022 1.81106 6.38253 1.82897C6.42512 1.83823 6.4689 1.85286 6.50598 1.87554C6.68001 1.98198 6.66739 2.17441 6.68665 2.33964C6.70673 2.51178 6.68323 2.68909 6.68165 2.86416C6.68147 2.88436 6.69564 2.91814 6.7101 2.9227C6.77144 2.94203 6.83493 2.96115 6.8985 2.96486C7.04893 2.97363 7.15437 3.0389 7.19147 3.18959C7.2276 3.33631 7.24851 3.48842 7.26012 3.63945C7.26931 3.75891 7.25268 3.88027 7.25058 4.00085C7.2491 4.08574 7.32237 4.15413 7.4036 4.14014C7.5036 4.12291 7.58087 4.16837 7.65367 4.22506C7.81303 4.34917 7.7821 4.54303 7.80536 4.70974C7.8272 4.86624 7.80371 5.02914 7.80318 5.18924C7.80311 5.21285 7.81429 5.25175 7.8296 5.25745C7.88949 5.27974 7.95316 5.30472 8.01536 5.30454C8.15136 5.30413 8.28849 5.38839 8.32941 5.52046C8.34838 5.58173 8.35876 5.64622 8.36818 5.71C8.38122 5.79828 8.39683 5.88713 8.39847 5.97599C8.40108 6.11769 8.39026 6.25963 8.39236 6.40136C8.39271 6.4252 8.42602 6.46305 8.45021 6.46913C8.50965 6.48408 8.5726 6.48495 8.63423 6.4903C8.80392 6.50504 8.93179 6.60444 8.9556 6.77317C8.977 6.9248 8.99416 7.07888 8.99255 7.23166C8.98913 7.55631 9.02272 7.8825 8.96008 8.20548C8.94028 8.30756 8.90286 8.38917 8.81188 8.44924C8.70219 8.52168 8.58052 8.51329 8.46188 8.52532C8.37059 8.53458 8.36082 8.54245 8.38911 8.63583ZM4.51064 10.9983C4.16359 10.9979 3.81653 10.996 3.4695 10.9985C3.405 10.9989 3.37981 10.9828 3.3824 10.9127C3.38743 10.7767 3.38182 10.6403 3.38486 10.5042C3.38611 10.4481 3.36601 10.4308 3.3125 10.4318C3.16127 10.4345 3.00992 10.4308 2.85869 10.4337C2.78421 10.4351 2.76527 10.411 2.7709 10.3313C2.7709 10.1571 2.7661 10.008 2.7709 9.83657C2.73017 9.83657 2.6813 9.83456 2.649 9.83456C2.34644 9.83456 2.04386 9.8327 1.74133 9.83599C1.67469 9.83671 1.64848 9.81652 1.65659 9.74855C1.6605 9.71575 1.65726 9.68206 1.65726 9.64878C1.65726 9.50773 1.65726 9.36668 1.65726 9.22324C1.2541 9.22324 0.864405 9.22324 0.471209 9.22324C0.471209 9.62722 0.471209 10.0247 0.471209 10.4326C0.651369 10.4326 0.825631 10.4341 0.999835 10.4316C1.05372 10.4308 1.07306 10.449 1.0718 10.5047C1.06878 10.6378 1.07532 10.7712 1.06921 10.904C1.06559 10.9827 1.09419 11.0013 1.16582 10.9985C1.29911 10.9933 1.43293 11.0016 1.56613 10.9953C1.64312 10.9917 1.65961 11.0205 1.65885 11.0936C1.6554 11.4264 1.65956 11.7593 1.65569 12.0922C1.65479 12.1692 1.67089 12.2005 1.753 12.1956C1.87419 12.1883 1.99632 12.198 2.11767 12.1921C2.19211 12.1885 2.21496 12.213 2.21229 12.2887C2.20691 12.4417 2.21069 12.5951 2.21069 12.7577C2.37108 12.7577 2.51897 12.7631 2.66623 12.7557C2.75912 12.751 2.78433 12.7855 2.77999 12.8754C2.77344 13.0112 2.78018 13.1477 2.77728 13.2838C2.7761 13.3392 2.7951 13.3581 2.84921 13.3571C3.00045 13.3544 3.15181 13.3586 3.30301 13.355C3.36401 13.3536 3.38717 13.3716 3.38516 13.4367C3.38095 13.5727 3.38796 13.7092 3.38231 13.8451C3.37914 13.9212 3.40321 13.9442 3.47723 13.9415C3.62724 13.936 3.77758 13.9399 3.93863 13.9399C3.93863 14.1448 3.93863 14.3368 3.93863 14.5367C4.14174 14.5367 4.3338 14.5367 4.54233 14.5378C4.71887 14.5378 4.8954 14.5378 5.08246 14.5378C5.08246 14.331 5.08246 14.1392 5.08246 13.9379C5.26986 13.9379 5.4465 13.9379 5.63432 13.9379C5.63432 13.7394 5.63432 13.5505 5.63432 13.3516C5.84024 13.3516 6.03476 13.3516 6.24012 13.3516C6.24012 13.1494 6.24012 12.9573 6.24012 12.7537C6.43312 12.7537 6.61522 12.7537 6.80587 12.7537C6.80587 12.5617 6.80587 12.3814 6.80587 12.1889C6.99374 12.1889 7.17273 12.1889 7.35998 12.1889C7.35998 11.7872 7.35998 11.398 7.35998 10.9977C7.55651 10.9977 7.74461 10.9977 7.94486 10.9977C7.94486 10.8042 7.94486 10.6218 7.94486 10.4298C8.15158 10.4298 8.34597 10.4298 8.54284 10.4298C8.54284 10.0223 8.54284 9.6247 8.54284 9.22356C8.14705 9.22356 7.75724 9.22356 7.35412 9.22356C7.35412 9.42977 7.35412 9.63019 7.35412 9.83869C6.97999 9.83869 6.6191 9.83869 6.24761 9.83869C6.24761 10.0128 6.24534 10.1785 6.24873 10.344C6.25008 10.4098 6.23114 10.4358 6.16314 10.4336C6.02086 10.4292 5.87816 10.4368 5.736 10.4306C5.65418 10.427 5.62674 10.4527 5.63032 10.5375C5.63664 10.6875 5.63209 10.8379 5.63209 11.0008C5.25566 11.0008 4.89157 11.0008 4.51064 10.9983ZM1.05767 6.91215C0.863372 6.91215 0.66908 6.91215 0.466352 6.91215C0.466352 7.11313 0.466352 7.30262 0.46536 7.50891C0.46536 7.69808 0.46536 7.88726 0.46536 8.08524C0.672573 8.08524 0.867038 8.08524 1.07234 8.08524C1.07234 8.27679 1.07234 8.45954 1.07234 8.654C1.45792 8.654 1.83258 8.654 2.21569 8.654C2.21569 8.86432 2.21569 9.0627 2.21569 9.2729C2.60768 9.2729 2.99112 9.2729 3.38239 9.2729C3.38239 9.46529 3.38239 9.64562 3.38239 9.83657C3.56944 9.83657 3.74873 9.83657 3.9392 9.83657C3.9392 10.0568 3.9392 10.2665 3.9392 10.479C4.14305 10.479 4.33538 10.479 4.54386 10.4814C4.72032 10.4814 4.8968 10.4814 5.08004 10.4814C5.08004 10.2604 5.08004 10.0528 5.08004 9.83416C5.26863 9.83416 5.4504 9.83416 5.63995 9.83416C5.63995 9.63979 5.63995 9.45676 5.63995 9.26673C6.02948 9.26673 6.41084 9.26673 6.802 9.26673C6.802 9.05896 6.802 8.85818 6.802 8.64808C7.18649 8.64808 7.56121 8.64808 7.94378 8.64808C7.94378 8.45544 7.94378 8.27225 7.94378 8.08049C8.14893 8.08049 8.34624 8.08049 8.54717 8.08049C8.54717 7.87852 8.54717 7.68535 8.54917 7.47504C8.54917 7.29142 8.54917 7.1078 8.54917 6.91081C8.34182 6.91081 8.14538 6.91081 7.94041 6.91081C7.94041 6.51149 7.94041 6.1256 7.94041 5.72872C7.74362 5.72872 7.55553 5.72872 7.35437 5.72872C7.35437 5.33605 7.35437 4.95437 7.35437 4.5635C7.16445 4.5635 6.98782 4.5635 6.79961 4.5635C6.79961 4.16585 6.79961 3.77752 6.79961 3.37999C6.61106 3.37999 6.43426 3.37999 6.25385 3.37999C6.25133 3.34734 6.24795 3.32381 6.24792 3.30028C6.24757 2.97653 6.24631 2.65276 6.24879 2.32902C6.2493 2.26248 6.22935 2.23826 6.16224 2.2403C6.01703 2.24471 5.87148 2.23794 5.72633 2.24327C5.6514 2.24602 5.63004 2.21971 5.6308 2.14503C5.6341 1.81829 5.63229 1.49148 5.63197 1.1647C5.63194 1.1324 5.62938 1.1001 5.62756 1.05769C5.47872 1.05769 5.33716 1.05776 5.19558 1.05767C5.07733 1.0576 5.07724 1.05752 5.07718 0.94061C5.0771 0.784157 5.07716 0.627704 5.07716 0.464095C4.87504 0.464095 4.6832 0.464095 4.47441 0.461846C4.29772 0.461846 4.12103 0.461846 3.93706 0.461846C3.93706 0.635638 3.93371 0.795685 3.9385 0.955478C3.94084 1.0333 3.91878 1.06468 3.83849 1.06082C3.71711 1.05498 3.59513 1.06284 3.47367 1.05793C3.40504 1.05516 3.38123 1.07466 3.38223 1.14863C3.38626 1.44823 3.3839 1.74791 3.3839 2.04757C3.3839 2.24135 3.3839 2.24135 3.19188 2.24135C3.05664 2.24135 2.92139 2.24135 2.77824 2.24135C2.77824 2.2888 2.77824 2.32155 2.77824 2.3543C2.77826 2.65698 2.77833 2.95966 2.77827 3.26234C2.77824 3.38406 2.77811 3.3842 2.66211 3.3843C2.51486 3.38444 2.3676 3.38434 2.21068 3.38434C2.21068 3.42994 2.21068 3.46245 2.21068 3.49496C2.21068 3.79461 2.21069 4.09426 2.21069 4.39391C2.21069 4.56639 2.21069 4.56639 2.04233 4.56639C1.91612 4.56639 1.78992 4.56639 1.65327 4.56639C1.65327 4.96219 1.65327 5.34185 1.65327 5.72914C1.61018 5.72914 1.57802 5.72913 1.54585 5.72914C1.40937 5.72915 1.27288 5.73004 1.13641 5.72868C1.09423 5.72826 1.06993 5.73755 1.07032 5.7883C1.07323 6.16349 1.07438 6.53869 1.07548 6.91427C1.07548 6.91427 1.07494 6.91472 1.05767 6.91215Z" fill="black"/>
</svg>
