<svg viewBox="0 0 9 15" xmlns="http://www.w3.org/2000/svg">
<path d="M8.38911 8.63583C8.38866 8.64913 8.38822 8.66242 8.38334 8.68438C8.37743 8.71235 8.37595 8.73167 8.37446 8.75098C8.41503 8.74396 8.45561 8.73694 8.49619 8.72992C8.50378 8.72913 8.51137 8.72835 8.52538 8.73508C8.56521 8.75886 8.5977 8.77772 8.63235 8.79044C8.65328 8.79812 8.67846 8.79304 8.70022 8.79921C8.86911 8.84713 8.95543 8.97058 8.97301 9.13952C8.98935 9.29663 8.99513 9.45568 8.99356 9.61375C8.99059 9.91271 9.02003 10.2132 8.97325 10.5103C8.94326 10.7007 8.88085 10.83 8.61931 10.8527C8.597 10.8546 8.57573 10.8671 8.55353 10.873C8.52169 10.8814 8.48735 10.8992 8.45778 10.8934C8.38345 10.8787 8.37897 10.9134 8.37089 10.9765C8.35794 11.0775 8.34388 11.1858 8.29799 11.2734C8.21138 11.4387 8.02754 11.4152 7.87974 11.4516C7.82501 11.465 7.79882 11.4724 7.8021 11.5293C7.80694 11.6134 7.82128 11.6981 7.8159 11.7815C7.80314 11.9791 7.78687 12.1768 7.76078 12.3729C7.74466 12.4941 7.59408 12.6083 7.4722 12.6143C7.40756 12.6175 7.34272 12.6239 7.27906 12.6352C7.26171 12.6382 7.23828 12.6625 7.23494 12.6804C7.22379 12.7402 7.21981 12.8015 7.2143 12.8623C7.19941 13.0265 7.10688 13.1356 6.94965 13.1721C6.86248 13.1923 6.77505 13.2114 6.69249 13.2299C6.6751 13.3314 6.66391 13.4218 6.64356 13.5101C6.60409 13.6812 6.47601 13.7881 6.29946 13.7804C6.11175 13.7723 6.07117 13.7999 6.05702 13.9919C6.0568 13.9949 6.05733 13.9981 6.05682 14.001C6.02464 14.1847 6.00995 14.3125 5.76326 14.3609C5.70197 14.373 5.64064 14.3856 5.57878 14.3935C5.52236 14.4008 5.50856 14.4342 5.50387 14.4863C5.49609 14.5729 5.49893 14.6679 5.46324 14.7423C5.42719 14.8175 5.36039 14.903 5.2881 14.9289C5.1594 14.9749 5.02466 15.0079 4.87804 14.9984C4.61222 14.9811 4.34447 14.9895 4.07771 14.9954C3.97066 14.9978 3.87099 14.9735 3.77144 14.9438C3.72492 14.93 3.67663 14.9088 3.6396 14.8779C3.52626 14.7833 3.51008 14.6496 3.50682 14.5103C3.50595 14.4734 3.48906 14.4142 3.46483 14.4049C3.3997 14.3797 3.32702 14.37 3.25661 14.3652C3.15931 14.3585 3.03232 14.2866 3.01185 14.2095C2.98014 14.0899 2.95392 13.9689 2.92886 13.8444C2.9169 13.8257 2.90145 13.8111 2.87815 13.7959C2.74553 13.7754 2.62075 13.7556 2.49491 13.7301C2.47622 13.7051 2.45859 13.6859 2.43814 13.6621C2.42576 13.6536 2.4162 13.6496 2.4065 13.6384C2.38199 13.5082 2.35905 13.3848 2.33178 13.2624C2.32766 13.2439 2.30566 13.2199 2.28803 13.2158C2.19171 13.1931 2.09416 13.1759 1.99181 13.1543C1.96643 13.1414 1.94628 13.1309 1.92291 13.116C1.8989 13.0963 1.87811 13.0811 1.85571 13.0592C1.82991 12.9487 1.80262 12.8454 1.7827 12.7406C1.77142 12.6812 1.76866 12.6389 1.68642 12.6318C1.55947 12.6209 1.42383 12.6187 1.32019 12.5138C1.3136 12.5011 1.30761 12.4934 1.30044 12.4793C1.28198 12.4292 1.25306 12.3866 1.24933 12.3419C1.22829 12.0886 1.21302 11.8348 1.19654 11.5811C1.19428 11.5462 1.19623 11.5111 1.19623 11.4714C1.15819 11.4695 1.13217 11.4683 1.10307 11.463C1.09063 11.4556 1.08129 11.4521 1.0686 11.4431C0.990086 11.4287 0.914903 11.42 0.837215 11.406C0.818278 11.3871 0.801846 11.3735 0.782618 11.3554C0.770343 11.3473 0.760864 11.3436 0.750896 11.3357C0.750407 11.3313 0.748397 11.3228 0.744996 11.3178C0.723586 11.2856 0.696171 11.2607 0.689341 11.2309C0.669076 11.1424 0.658111 11.0517 0.640807 10.9625C0.636128 10.9384 0.625892 10.8996 0.611303 10.8959C0.541337 10.8782 0.468768 10.8595 0.397561 10.8611C0.277383 10.8638 0.113413 10.7723 0.0858303 10.6536C0.0490681 10.4953 0.0104959 10.3333 0.00717061 10.1721C5.6874e-05 9.82727 -0.0117278 9.48188 0.0508363 9.13798C0.091854 8.91251 0.172275 8.81999 0.399052 8.79549C0.484196 8.78629 0.567414 8.75854 0.650816 8.7394C0.647635 8.69171 0.640893 8.64994 0.643003 8.60864C0.646341 8.54333 0.616361 8.52607 0.557223 8.52543C0.486757 8.52467 0.415075 8.51998 0.346273 8.50543C0.207887 8.47614 0.0946891 8.40782 0.0657416 8.25343C0.0395958 8.11398 0.0121719 7.97308 0.00579204 7.83186C-0.00417094 7.61134 0.00107818 7.38996 0.00421676 7.16901C0.00543042 7.08358 0.0135068 6.99749 0.0271922 6.91318C0.052874 6.75495 0.0785975 6.58888 0.251637 6.52437C0.33827 6.49207 0.434757 6.48279 0.52777 6.47429C0.594124 6.46823 0.623841 6.44523 0.625071 6.37566C0.628885 6.15988 0.627661 5.94349 0.644209 5.7286C0.666021 5.44533 0.722322 5.38233 0.934917 5.30908C0.993267 5.28897 1.05676 5.27667 1.11818 5.27545C1.20074 5.27381 1.21504 5.23249 1.21288 5.16001C1.2056 4.91526 1.19803 4.67107 1.24539 4.42762C1.27813 4.25933 1.4237 4.13115 1.59656 4.14245C1.70057 4.14924 1.76143 4.08992 1.76435 3.98569C1.77099 3.74851 1.76724 3.50995 1.79253 3.27473C1.81229 3.09096 1.94196 2.95644 2.12103 2.95518C2.2957 2.95396 2.33367 2.92476 2.33361 2.75091C2.33357 2.63587 2.32881 2.52056 2.33494 2.40586C2.34094 2.29382 2.34392 2.17805 2.37518 2.0722C2.39706 1.99813 2.45077 1.91165 2.51436 1.87776C2.61179 1.82584 2.72866 1.80463 2.83979 1.78917C2.91775 1.77832 2.94149 1.74803 2.93988 1.67409C2.93698 1.54096 2.93649 1.40764 2.93981 1.27452C2.94262 1.16155 2.94414 1.04748 2.96112 0.936257C2.97781 0.826943 3.02184 0.719936 3.13056 0.675842C3.22612 0.637083 3.33046 0.600782 3.43104 0.600475C3.53589 0.600156 3.49981 0.542949 3.50554 0.491106C3.51878 0.371359 3.51895 0.251081 3.6066 0.148674C3.7222 0.0136087 3.88159 0.0200119 4.02566 0.0107779C4.30055 -0.00684268 4.57785 0.0160997 4.85307 0.00126237C4.99172 -0.00621269 5.11794 0.0202942 5.24533 0.060003C5.29153 0.0744033 5.34049 0.0932556 5.37693 0.123979C5.48887 0.218357 5.49956 0.355179 5.50473 0.489749C5.50721 0.554388 5.49893 0.607991 5.59226 0.608771C5.66029 0.60934 5.72735 0.64466 5.79616 0.652524C5.94002 0.668965 6.01083 0.760197 6.03673 0.891993C6.05693 0.994741 6.06954 1.10019 6.07325 1.20489C6.07915 1.37118 6.07216 1.53793 6.07745 1.70426C6.07833 1.73193 6.10937 1.77544 6.1343 1.78237C6.21516 1.80485 6.30022 1.81106 6.38253 1.82897C6.42512 1.83823 6.4689 1.85286 6.50598 1.87554C6.68001 1.98198 6.66739 2.17441 6.68665 2.33964C6.70673 2.51178 6.68323 2.68909 6.68165 2.86416C6.68147 2.88436 6.69564 2.91814 6.7101 2.9227C6.77144 2.94203 6.83493 2.96115 6.8985 2.96486C7.04893 2.97363 7.15437 3.0389 7.19147 3.18959C7.2276 3.33631 7.24851 3.48842 7.26012 3.63945C7.26931 3.75891 7.25268 3.88028 7.25058 4.00085C7.2491 4.08574 7.32237 4.15413 7.4036 4.14014C7.5036 4.12291 7.58087 4.16837 7.65367 4.22506C7.81303 4.34917 7.7821 4.54303 7.80536 4.70974C7.8272 4.86624 7.80371 5.02914 7.80318 5.18924C7.80311 5.21285 7.81429 5.25175 7.8296 5.25745C7.88949 5.27974 7.95316 5.30472 8.01536 5.30454C8.15136 5.30414 8.28849 5.38839 8.3294 5.52046C8.34838 5.58173 8.35876 5.64622 8.36818 5.71C8.38122 5.79828 8.39683 5.88713 8.39847 5.97599C8.40108 6.11769 8.39026 6.25963 8.39236 6.40136C8.39271 6.4252 8.42602 6.46305 8.45021 6.46913C8.50965 6.48408 8.5726 6.48495 8.63423 6.4903C8.80392 6.50504 8.93179 6.60444 8.9556 6.77317C8.977 6.9248 8.99416 7.07889 8.99255 7.23166C8.98912 7.55631 9.02271 7.8825 8.96008 8.20548C8.94028 8.30756 8.90285 8.38917 8.81188 8.44924C8.70219 8.52168 8.58052 8.51329 8.46188 8.52532C8.37059 8.53458 8.36082 8.54245 8.38911 8.63583ZM4.51063 10.9983C4.16359 10.9979 3.81653 10.996 3.4695 10.9985C3.405 10.9989 3.37981 10.9828 3.3824 10.9127C3.38743 10.7767 3.38182 10.6403 3.38486 10.5042C3.38611 10.4481 3.36601 10.4308 3.3125 10.4318C3.16127 10.4345 3.00992 10.4308 2.85869 10.4337C2.78421 10.4351 2.76527 10.411 2.7709 10.3313C2.78245 10.1678 2.79604 10.002 2.75432 9.83456C2.71359 9.83456 2.68129 9.83456 2.649 9.83456C2.34644 9.83456 2.04386 9.8327 1.74133 9.83599C1.67469 9.83672 1.64848 9.81652 1.65659 9.74855C1.6605 9.71575 1.65726 9.68206 1.65726 9.64878C1.65726 9.50773 1.65726 9.36668 1.65726 9.22324C1.2541 9.22324 0.864405 9.22324 0.471209 9.22324C0.471209 9.62722 0.471209 10.0247 0.471209 10.4326C0.651369 10.4326 0.82563 10.4341 0.999834 10.4316C1.05372 10.4308 1.07306 10.449 1.0718 10.5047C1.06878 10.6378 1.07532 10.7712 1.06921 10.904C1.06559 10.9827 1.09419 11.0013 1.16582 10.9985C1.29911 10.9933 1.43293 11.0016 1.56613 10.9953C1.64312 10.9917 1.65961 11.0205 1.65885 11.0936C1.6554 11.4264 1.65956 11.7593 1.65569 12.0922C1.65479 12.1692 1.67089 12.2005 1.753 12.1956C1.87419 12.1883 1.99632 12.198 2.11767 12.1921C2.19211 12.1885 2.21496 12.213 2.21229 12.2887C2.20691 12.4417 2.21069 12.5951 2.21069 12.7577C2.37108 12.7577 2.51897 12.7631 2.66623 12.7557C2.75912 12.751 2.78433 12.7855 2.77999 12.8754C2.77344 13.0112 2.78018 13.1477 2.77728 13.2838C2.7761 13.3392 2.7951 13.3581 2.84921 13.3571C3.00045 13.3544 3.15181 13.3586 3.30301 13.355C3.36401 13.3536 3.38717 13.3716 3.38516 13.4367C3.38095 13.5727 3.38796 13.7092 3.38231 13.8451C3.37914 13.9212 3.40321 13.9442 3.47723 13.9415C3.62724 13.936 3.77758 13.9399 3.93862 13.9399C3.93862 14.1448 3.93862 14.3368 3.93862 14.5367C4.14174 14.5367 4.3338 14.5367 4.54233 14.5378C4.71887 14.5378 4.8954 14.5378 5.08246 14.5378C5.08246 14.331 5.08246 14.1392 5.08246 13.9379C5.26986 13.9379 5.4465 13.9379 5.63432 13.9379C5.63432 13.7394 5.63432 13.5505 5.63432 13.3516C5.84024 13.3516 6.03476 13.3516 6.24012 13.3516C6.24012 13.1494 6.24012 12.9573 6.24012 12.7537C6.43312 12.7537 6.61521 12.7537 6.80587 12.7537C6.80587 12.5617 6.80587 12.3814 6.80587 12.1889C6.99374 12.1889 7.17273 12.1889 7.35998 12.1889C7.35998 11.7872 7.35998 11.398 7.35998 10.9977C7.55651 10.9977 7.74461 10.9977 7.94486 10.9977C7.94486 10.8042 7.94486 10.6218 7.94486 10.4298C8.15158 10.4298 8.34597 10.4298 8.54284 10.4298C8.54284 10.0223 8.54284 9.6247 8.54284 9.22356C8.14705 9.22356 7.75724 9.22356 7.35412 9.22356C7.35412 9.42977 7.35412 9.63019 7.35412 9.83869C6.97999 9.83869 6.6191 9.83869 6.24761 9.83869C6.24761 10.0128 6.24534 10.1785 6.24873 10.344C6.25008 10.4098 6.23114 10.4358 6.16313 10.4336C6.02086 10.4292 5.87816 10.4368 5.736 10.4306C5.65418 10.427 5.62673 10.4527 5.63031 10.5375C5.63664 10.6875 5.63209 10.8379 5.63209 11.0008C5.25566 11.0008 4.89157 11.0008 4.51063 10.9983ZM1.05767 6.91215C0.863372 6.91215 0.66908 6.91215 0.466352 6.91215C0.466352 7.11313 0.466352 7.30262 0.46536 7.50891C0.46536 7.69808 0.46536 7.88726 0.46536 8.08524C0.672573 8.08524 0.867037 8.08524 1.07234 8.08524C1.07234 8.27679 1.07234 8.45954 1.07234 8.654C1.45792 8.654 1.83258 8.654 2.21569 8.654C2.21569 8.86432 2.21569 9.0627 2.21569 9.2729C2.60768 9.2729 2.99112 9.2729 3.38239 9.2729C3.38239 9.46529 3.38239 9.64562 3.38239 9.83657C3.56944 9.83657 3.74873 9.83657 3.9392 9.83657C3.9392 10.0568 3.9392 10.2665 3.9392 10.479C4.14305 10.479 4.33538 10.479 4.54385 10.4814C4.72032 10.4814 4.8968 10.4814 5.08004 10.4814C5.08004 10.2604 5.08004 10.0528 5.08004 9.83416C5.26863 9.83416 5.4504 9.83416 5.63994 9.83416C5.63994 9.63979 5.63994 9.45676 5.63994 9.26673C6.02948 9.26673 6.41084 9.26673 6.802 9.26673C6.802 9.05896 6.802 8.85818 6.802 8.64808C7.18649 8.64808 7.56121 8.64808 7.94378 8.64808C7.94378 8.45544 7.94378 8.27225 7.94378 8.08049C8.14893 8.08049 8.34624 8.08049 8.54717 8.08049C8.54717 7.87852 8.54717 7.68535 8.54917 7.47504C8.54917 7.29142 8.54917 7.1078 8.54917 6.91081C8.34182 6.91081 8.14538 6.91081 7.94041 6.91081C7.94041 6.51149 7.94041 6.1256 7.94041 5.72872C7.74361 5.72872 7.55553 5.72872 7.35437 5.72872C7.35437 5.33605 7.35437 4.95437 7.35437 4.5635C7.16445 4.5635 6.98782 4.5635 6.79961 4.5635C6.79961 4.16585 6.79961 3.77752 6.79961 3.37999C6.61106 3.37999 6.43426 3.37999 6.25385 3.37999C6.25133 3.34734 6.24795 3.32381 6.24792 3.30028C6.24757 2.97653 6.24631 2.65276 6.24879 2.32902C6.2493 2.26248 6.22935 2.23826 6.16224 2.2403C6.01703 2.24471 5.87148 2.23794 5.72633 2.24327C5.6514 2.24602 5.63004 2.21971 5.6308 2.14503C5.6341 1.81829 5.63229 1.49148 5.63197 1.1647C5.63194 1.1324 5.62938 1.1001 5.62756 1.05769C5.47872 1.05769 5.33715 1.05776 5.19558 1.05767C5.07733 1.0576 5.07724 1.05752 5.07718 0.94061C5.07709 0.784157 5.07716 0.627704 5.07716 0.464095C4.87504 0.464095 4.6832 0.464095 4.47441 0.461846C4.29772 0.461846 4.12103 0.461846 3.93706 0.461846C3.93706 0.635638 3.93371 0.795685 3.9385 0.955478C3.94084 1.0333 3.91878 1.06468 3.83849 1.06082C3.71711 1.05498 3.59513 1.06284 3.47367 1.05793C3.40504 1.05516 3.38123 1.07466 3.38223 1.14863C3.38626 1.44823 3.3839 1.74791 3.3839 2.04757C3.3839 2.24135 3.3839 2.24135 3.19188 2.24135C3.05664 2.24135 2.92139 2.24135 2.77824 2.24135C2.77824 2.2888 2.77824 2.32155 2.77824 2.3543C2.77826 2.65698 2.77833 2.95966 2.77827 3.26234C2.77824 3.38406 2.77811 3.3842 2.66211 3.3843C2.51486 3.38444 2.3676 3.38434 2.21068 3.38434C2.21068 3.42994 2.21068 3.46245 2.21068 3.49496C2.21068 3.79461 2.21069 4.09426 2.21069 4.39391C2.21069 4.56639 2.21069 4.56639 2.04233 4.56639C1.91612 4.56639 1.78991 4.56639 1.65327 4.56639C1.65327 4.96219 1.65327 5.34185 1.65327 5.72914C1.61018 5.72914 1.57802 5.72913 1.54585 5.72914C1.40937 5.72915 1.27288 5.73004 1.13641 5.72868C1.09423 5.72826 1.06993 5.73755 1.07032 5.7883C1.07323 6.16349 1.07438 6.53869 1.07548 6.91427C1.07548 6.91427 1.07494 6.91472 1.05767 6.91215Z" fill="#33FF33"/>
</svg>
