<svg viewBox="0 0 16 22" fill="none" xmlns="http://www.w3.org/2000/svg">
<path d="M13.0761 5.33988H12.8675L12.7207 5.48822L11.2815 6.94283L11.1369 7.08894V7.29449V8.75479V8.96091L11.2822 9.10715L12.7214 10.5561L12.868 10.7037H13.0761H14.0462L14.0467 12.6129H1.94507V3.43066H14.0467L14.0462 5.33988H13.0761Z" fill="black" stroke="#4AF626"/>
<path d="M15.0418 3.41863H15.4964V3.87324H15.0418V3.41863ZM14.0468 1.96402V2.41863H1.45461H0.95461V2.91863V13.1009V13.6009H1.45461H14.0468V14.0555H1.45461H0.95461V14.5555V21.3288H0.5V0.5H0.95461V1.46402V1.96402H1.45461H14.0468ZM13.5908 11.1463V10.6917H14.0454V11.1463H13.5908ZM12.5908 9.69168H12.1362V9.23707H12.5908V9.69168ZM11.1362 8.23707H10.6816V7.78246H11.1362V8.23707ZM12.1326 6.78246V6.32785H12.5872V6.78246H12.1326ZM14.0418 4.87324V5.32785H13.5872V4.87324H14.0418ZM15.0431 12.6003L15.0442 12.1457L15.4988 12.1468L15.4977 12.6015L15.0431 12.6003Z" fill="black" stroke="#4AF626"/>
</svg>
