<svg viewBox="0 0 24 24" fill="none" xmlns="http://www.w3.org/2000/svg">
<path d="M22.1538 1.8457H1.84616V22.1534H22.1538V1.8457Z" fill="#4AF626"/>
<path d="M12.9231 11.0769H14.7692V12.9231H12.9231V11.0769Z" fill="black"/>
<path d="M11.0769 18.4615H12.9231V20.3077H11.0769V18.4615Z" fill="black"/>
<path d="M11.0769 16.6154H12.9231V12.9231H11.0769V16.6154Z" fill="black"/>
<path d="M16.6154 5.53846H14.7692V11.0769H16.6154V5.53846Z" fill="black"/>
<path d="M9.23077 3.69231V5.53846H14.7692V3.69231H9.23077Z" fill="black"/>
<path d="M9.23077 5.53846H7.38462V9.23077H9.23077V5.53846Z" fill="black"/>
<path d="M1.84615 8.06979e-08V1.84615L22.1538 1.84615V8.06979e-08H1.84615Z" fill="black"/>
<path d="M1.84615 1.84615L4.0349e-08 1.84615V22.1538H1.84615V1.84615Z" fill="black"/>
<path d="M1.84615 22.1538V24H22.1538V22.1538H1.84615Z" fill="black"/>
<path d="M22.1538 22.1538H24V1.84615H22.1538V22.1538Z" fill="black"/>
</svg>
