<svg width="32" height="42" viewBox="0 0 32 42" fill="none" xmlns="http://www.w3.org/2000/svg">
<path d="M6.4 0H25.6V3.2H22.4V16H19.2V3.2H12.8V16H9.6V3.2H6.4V0Z" fill="black"/>
<path d="M6.4 19.2V16H9.6V19.2H6.4Z" fill="black"/>
<path d="M3.2 22.4V19.2H6.4V22.4H3.2Z" fill="black"/>
<path d="M3.2 32H0V22.4H3.2V32Z" fill="black"/>
<path fill-rule="evenodd" clip-rule="evenodd" d="M6.4 32H3.2V35.2H6.4V38.4H9.6V41.6H22.4V38.4H25.6V35.2H28.8V32H32V22.4H28.8V19.2H25.6V16H22.4V19.2H25.6V22.4H28.8V32H25.6V28.8H6.4V32ZM9.6 35.2V38.4H22.4V35.2H25.6V32H22.4V35.2H9.6ZM9.6 35.2H6.4V32H9.6V35.2Z" fill="black"/>
<path d="M12.8 22.4H9.6V25.6H12.8V22.4Z" fill="black"/>
<path d="M16 19.2H19.2V22.4H16V19.2Z" fill="black"/>
<path fill-rule="evenodd" clip-rule="evenodd" d="M12.8 3.2002H19.2V16.0002H22.4V19.2002H25.6V22.4002H28.8V32.0002H25.6V28.8002H6.39995V32.0002H3.19995V22.4002H6.39995V19.2002H9.59995V16.0002H12.8V3.2002ZM19.2 22.4002V19.2002H16V22.4002H19.2ZM12.8 22.4002V25.6002H9.59995V22.4002H12.8Z" fill="#33FF33"/>
<path d="M9.59995 35.2002H6.39995V32.0002H9.59995V35.2002Z" fill="#33FF33"/>
<path d="M22.4 35.2002V38.4002H9.59995V35.2002H22.4Z" fill="#33FF33"/>
<path d="M22.4 35.2002H25.6V32.0002H22.4V35.2002Z" fill="#33FF33"/>
</svg>
