<svg viewBox="0 0 35 30" fill="none" xmlns="http://www.w3.org/2000/svg">
<path d="M12.8571 2.14286H15V4.28571H12.8571V2.14286Z" fill="black"/>
<path d="M21.4286 2.14286H19.2857V4.28571H21.4286V2.14286Z" fill="black"/>
<path d="M4.28571 2.14286H6.42857V4.28571H4.28571V2.14286Z" fill="black"/>
<path d="M30 2.14286H27.8571V4.28571H30V2.14286Z" fill="black"/>
<path d="M2.14286 4.28571H4.28571V6.42857H2.14286V4.28571Z" fill="black"/>
<path d="M32.1429 4.28571H30V6.42857H32.1429V4.28571Z" fill="black"/>
<path d="M2.14286 15H4.28571V17.1429H2.14286V15Z" fill="black"/>
<path d="M32.1429 15H30V17.1429H32.1429V15Z" fill="black"/>
<path d="M10.7143 23.5714H12.8571V25.7143H10.7143V23.5714Z" fill="black"/>
<path d="M23.5714 23.5714H21.4286V25.7143H23.5714V23.5714Z" fill="black"/>
<path d="M12.8571 25.7143H15V27.8571H12.8571V25.7143Z" fill="black"/>
<path d="M21.4286 25.7143H19.2857V27.8571H21.4286V25.7143Z" fill="black"/>
<path d="M8.57143 21.4286H10.7143V23.5714H8.57143V21.4286Z" fill="black"/>
<path d="M25.7143 21.4286H23.5714V23.5714H25.7143V21.4286Z" fill="black"/>
<path d="M6.42857 19.2857H8.57143V21.4286H6.42857V19.2857Z" fill="black"/>
<path d="M27.8571 19.2857H25.7143V21.4286H27.8571V19.2857Z" fill="black"/>
<path d="M4.28571 17.1429H6.42857V19.2857H4.28571V17.1429Z" fill="black"/>
<path d="M30 17.1429H27.8571V19.2857H30V17.1429Z" fill="black"/>
<path d="M6.42857 0V2.14286H12.8571V0H6.42857Z" fill="black"/>
<path d="M27.8571 2.14286V0H21.4286V2.14286H27.8571Z" fill="black"/>
<path d="M32.1429 15H34.2857V6.42857H32.1429V15Z" fill="black"/>
<path d="M0 15H2.14286V6.42857H0V15Z" fill="black"/>
<path d="M15 27.8571V30H19.2857V27.8571H15Z" fill="black"/>
<path d="M15 4.28571V6.42857H19.2857V4.28571H15Z" fill="black"/>
<path d="M19.2857 27.8569H15V25.714H12.8571V23.5711H10.7143V21.4283H8.57139V19.2854H6.42854V17.1426H4.28568V14.9997H2.14282V6.42829H4.28568V4.28544H6.42854V2.14258H12.8571V4.28544H15V6.42829H19.2857V4.28544H21.4285V2.14258H27.8571V4.28544H30V6.42829H32.1428V14.9997H30V17.1426H27.8571V19.2854H25.7143V21.4283H23.5714V23.5711H21.4285V25.714H19.2857V27.8569Z" fill="#4AF626"/>
</svg>
