<svg viewBox="0 0 28 28" fill="none" xmlns="http://www.w3.org/2000/svg">
<path d="M20 2H8V4H4V8H2V20H4V24H8V26H20V24H24V20H26V8H24V4H20V2Z" fill="#4AF626"/>
<path d="M8 26V28H20V26H8Z" fill="black"/>
<path d="M4 24V26H8V24H4Z" fill="black"/>
<path d="M4 20H2V24H4V20Z" fill="black"/>
<path d="M0 20H2V8H0V20Z" fill="black"/>
<path d="M2 8H4V4H2L2 8Z" fill="black"/>
<path d="M4 2V4H8V2H4Z" fill="black"/>
<path d="M8 0V2H20V0H8Z" fill="black"/>
<path d="M24 4V2H20V4H24Z" fill="black"/>
<path d="M24 8H26V4H24V8Z" fill="black"/>
<path d="M26 20H28V8H26V20Z" fill="black"/>
<path d="M26 20H24V24H26V20Z" fill="black"/>
<path d="M24 26V24H20V26H24Z" fill="black"/>
<path d="M13 8H15V16H13V8Z" fill="black"/>
<path d="M13 18H15V20H13V18Z" fill="black"/>
</svg>
