<svg viewBox="0 0 14 17" fill="currentColor" xmlns="http://www.w3.org/2000/svg">
<path fill-rule="evenodd" clip-rule="evenodd" d="M2.5 0.156982V1.15698H12.5V15.157H13.5V0.156982H2.5ZM1.5 3.15698H0.5V4.15698H1.5V5.15698H0.5V6.15698H1.5V7.15698H0.5V8.15698H1.5V9.15698H0.5V10.157H1.5V11.157H0.5V12.157H1.5V13.157H0.5V14.157H1.5V15.157H0.5V16.157H2.5V15.157H3.5V16.157H11.5V2.15698H1.5V3.15698ZM2.5 3.15698H3.5V4.15698H2.5V3.15698ZM2.5 5.15698H3.5V6.15698H2.5V5.15698ZM2.5 7.15698H3.5V8.15698H2.5V7.15698ZM2.5 9.15698H3.5V10.157H2.5V9.15698ZM2.5 11.157H3.5V12.157H2.5V11.157ZM2.5 13.157H3.5V14.157H2.5V13.157Z" fill="currentColor"/>
</svg>
