<svg viewBox="0 0 30 45" fill="none" xmlns="http://www.w3.org/2000/svg">
<path d="M5.90916 35.4542V23.636H3.54552V18.9087H1.18188V9.45419H3.54552V4.72692H8.27279V2.36328H17.7273L17.7227 4.45772L22.4546 4.72692V9.45419H24.8182V18.9087H22.4546V23.636H20.091V35.4542H5.90916Z" fill="#33FF33"/>
<path fill-rule="evenodd" clip-rule="evenodd" d="M16.5455 0H9.45548V2.36364H4.72727V4.72727H2.36364V9.45455H0V18.9091H2.36364V23.6364H4.72727V35.4433H7.09091V37.8069L18.9091 37.8182V35.4545H21.2727V23.6364H23.6364V18.9091H26V9.45455H23.6364V4.72727H21.2727V2.36364H16.5455V0ZM16.5455 2.36364V4.72727H21.2727V9.45455H23.6364V18.9091H21.2727V23.6364H18.9091L18.91 26L14.1834 25.9903V11.8182H16.5455V9.44329L9.45455 9.45455V11.8182H11.8182V25.9903L7.09091 26V23.6364H4.72727V18.9091H2.36364V9.45455H4.72727V4.72727H9.45548V2.36364H16.5455ZM18.9091 35.4545L7.09091 35.4433V33.0797H18.91L18.9091 35.4545ZM7.09091 30.716V28.3636H18.9091L18.91 30.716H7.09091Z" fill="black"/>
</svg>
