<svg viewBox="0 0 1314 203" fill="currentColor" xmlns="http://www.w3.org/2000/svg">
<g clip-path="url(#clip0_930_2936)">
<path d="M16.2416 73V186.75H64.9664V203H0V73H16.2416ZM138.054 73V89.25H146.174V105.5H154.295V170.5H146.174V186.75H138.054V203H97.4497V186.75H89.3289V170.5H81.2081V105.5H89.3289V89.25H97.4497V73H138.054ZM105.57 89.25V105.5H97.4497V170.5H105.57V186.75H129.933V170.5H138.054V105.5H129.933V89.25H105.57ZM349.195 73V89.25H316.711V203H300.47V89.25H267.987V73H349.195ZM519.732 105.5V89.25H479.128V121.75H535.973V186.75H527.852V203H471.007V186.75H462.886V170.5H479.128V186.75H519.732V138H471.007V121.75H462.886V89.25H471.007V73H527.852V89.25H535.973V105.5H519.732ZM576.577 73V186.75H609.06V73H625.302V186.75H617.181V203H568.456V186.75H560.336V73H576.577ZM706.51 73V89.25H714.631V121.75H698.389V138H706.51V154.25H714.631V170.5H722.752V203H706.51V170.5H698.389V154.25H690.268V138H665.906V203H649.664V73H706.51ZM665.906 89.25V121.75H698.389V89.25H665.906ZM763.356 73V138H771.477V154.25H779.597V170.5H787.718V154.25H795.839V138H803.96V73H820.201V138H812.081V154.25H803.96V170.5H795.839V186.75H787.718V203H779.597V186.75H771.477V170.5H763.356V154.25H755.235V138H747.114V73H763.356ZM901.409 73V89.25H885.168V186.75H901.409V203H852.685V186.75H868.926V89.25H852.685V73H901.409ZM950.134 73V138H958.255V154.25H966.376V170.5H974.497V154.25H982.617V138H990.738V73H1006.98V138H998.859V154.25H990.738V170.5H982.617V186.75H974.497V203H966.376V186.75H958.255V170.5H950.134V154.25H942.013V138H933.893V73H950.134ZM1193.76 73V89.25H1201.88V121.75H1185.64V138H1193.76V154.25H1201.88V170.5H1210V203H1193.76V170.5H1185.64V154.25H1177.52V138H1153.15V203H1136.91V73H1193.76ZM1153.15 89.25V121.75H1185.64V89.25H1153.15ZM235.503 73V89.25H243.624V105.5H251.745V170.5H243.624V186.75H235.503V203H194.899V186.75H186.779V170.5H178.658V105.5H186.779V89.25H194.899V73H235.503ZM203.02 89.25V105.5H194.899V170.5H203.02V186.75H227.383V170.5H235.503V105.5H227.383V89.25H203.02ZM1039.46 89.25V73H1104.43V89.25H1112.55V170.5H1088.19V203H1055.7V170.5H1031.34V89.25H1039.46ZM1047.58 121.75V154.25H1063.83V170.5H1080.07V154.25H1096.31V121.75H1080.07V154.25H1063.83V121.75H1047.58Z" fill="#33FF33"/>
</g>
<path d="M1272.26 60.0556L1272.26 73.4013H1307.96V60.0556H1314V20.0185H1284.33V13.3457H1314V0H1272.26V33.3642H1301.93V60.0556H1272.26Z" fill="#00FF3C"/>
<path d="M1242.86 73.4013V0H1231V73.4013H1242.86Z" fill="#33FF33"/>
<path d="M1264.31 59.2848H1250.2V73.4004H1264.31V59.2848Z" fill="#33FF33"/>
<defs>
<clipPath id="clip0_930_2936">
<rect width="1210" height="130" fill="white" transform="translate(0 73)"/>
</clipPath>
</defs>
</svg>
