<svg xmlns="http://www.w3.org/2000/svg" viewBox="0 0 149 16"><g><g><path d="M2 0v14h6v2H0V0zm15 0v2h1v2h1v8h-1v2h-1v2h-5v-2h-1v-2h-1V4h1V2h1V0zm-4 2v2h-1v8h1v2h3v-2h1V4h-1V2zm30-2v2h-4v14h-2V2h-4V0zm21 4V2h-5v4h7v8h-1v2h-7v-2h-1v-2h2v2h5V8h-6V6h-1V2h1V0h7v2h1v2zm7-4v14h4V0h2v14h-1v2h-6v-2h-1V0zm16 0v2h1v4h-2v2h1v2h1v2h1v4h-2v-4h-1v-2h-1V8h-3v8h-2V0zm-5 2v4h4V2zm12-2v8h1v2h1v2h1v-2h1V8h1V0h2v8h-1v2h-1v2h-1v2h-1v2h-1v-2h-1v-2h-1v-2h-1V8h-1V0zm17 0v2h-2v12h2v2h-6v-2h2V2h-2V0zm6 0v8h1v2h1v2h1v-2h1V8h1V0h2v8h-1v2h-1v2h-1v2h-1v2h-1v-2h-1v-2h-1v-2h-1V8h-1V0zm30 0v2h1v4h-2v2h1v2h1v2h1v4h-2v-4h-1v-2h-1V8h-3v8h-2V0zm-5 2v4h4V2zM29 0v2h1v2h1v8h-1v2h-1v2h-5v-2h-1v-2h-1V4h1V2h1V0zm-4 2v2h-1v8h1v2h3v-2h1V4h-1V2zm103 0V0h8v2h1v10h-3v4h-4v-4h-3V2zm1 4v4h2v2h2v-2h2V6h-2v4h-2V6z"/></g></g></svg>