<svg width="47" height="37" viewBox="0 0 47 37" fill="none" xmlns="http://www.w3.org/2000/svg">
<path d="M3.08325 27.7497V9.24967H9.24992V6.16634H15.4166V3.08301H21.5833V33.9163H15.4166V30.833H9.24992V27.7497H3.08325Z" fill="#33FF33"/>
<path d="M30.8333 12.3333H33.9167V9.25H30.8333V12.3333Z" fill="#33FF33"/>
<path d="M33.9167 15.4167H37V12.3333H33.9167V15.4167Z" fill="#33FF33"/>
<path d="M40.0833 21.5833H43.1667V18.5H40.0833V21.5833Z" fill="#33FF33"/>
<path d="M43.1667 24.6667H46.25V21.5833H43.1667V24.6667Z" fill="#33FF33"/>
<path d="M30.8333 24.6667H33.9167V21.5833H30.8333V24.6667Z" fill="#33FF33"/>
<path d="M33.9167 21.5833H37V18.5H33.9167V21.5833Z" fill="#33FF33"/>
<path d="M37 18.5H40.0833V15.4167H37V18.5Z" fill="#33FF33"/>
<path d="M40.0833 15.4167H43.1667V12.3333H40.0833V15.4167Z" fill="#33FF33"/>
<path d="M43.1667 12.3333H46.25V9.25H43.1667V12.3333Z" fill="#33FF33"/>
<path d="M15.4167 6.16667V3.08333H9.25V6.16667H15.4167Z" fill="#33FF33"/>
<path d="M9.25 9.25V6.16667H3.08333V9.25H9.25Z" fill="#33FF33"/>
<path d="M3.08333 9.25H0V27.75H3.08333V9.25Z" fill="#33FF33"/>
<path d="M3.08333 27.75V30.8333H9.25V27.75H3.08333Z" fill="#33FF33"/>
<path d="M9.25 30.8333V33.9167H15.4167V30.8333H9.25Z" fill="#33FF33"/>
<path d="M15.4167 33.9167V37H21.5833V33.9167H15.4167Z" fill="#33FF33"/>
<path d="M21.5833 33.9167H24.6667V3.08333H21.5833V33.9167Z" fill="#33FF33"/>
<path d="M21.5833 3.08333V0H15.4167V3.08333H21.5833Z" fill="#33FF33"/>
</svg>
