<svg viewBox="0 0 31 31" fill="none" xmlns="http://www.w3.org/2000/svg">
<path d="M28.4759 24.0954V28.4764H8.76144V26.2859H6.57094V4.38093H4.38044V8.76193H2.18994V2.19043H21.9044V4.38093H24.0949V21.9049H10.9519V24.0954H28.4759Z" fill="#4AF626"/>
<path d="M24.0955 2.1905L21.905 2.1905L21.905 4.381L24.0955 4.381V2.1905Z" fill="black"/>
<path d="M6.5715 26.286L8.762 26.286V28.4765L6.5715 28.4765V26.286Z" fill="black"/>
<path d="M21.905 2.1905V4.99623e-06L2.1905 1.149e-06V2.1905L21.905 2.1905Z" fill="black"/>
<path d="M2.1905 2.1905L0 2.1905L2.66352e-06 8.762L2.1905 8.762L2.1905 2.1905Z" fill="black"/>
<path d="M6.5715 4.381L4.381 4.381L4.381 8.762L2.1905 8.762L2.1905 10.9525H4.381L4.381 26.286H6.5715L6.5715 4.381Z" fill="black"/>
<path d="M19.7145 10.9525V8.762H10.9525V10.9525L19.7145 10.9525Z" fill="black"/>
<path d="M15.3335 17.524V15.3335H10.9525V17.524L15.3335 17.524Z" fill="black"/>
<path d="M10.9525 21.905L10.9525 24.0955H28.4765V21.905H26.286L26.286 4.381L24.0955 4.381L24.0955 21.905L10.9525 21.905Z" fill="black"/>
<path d="M30.667 24.0955H28.4765V28.4765L30.667 28.4765V24.0955Z" fill="black"/>
<path d="M8.762 28.4765V30.667L28.4765 30.667V28.4765H8.762Z" fill="black"/>
</svg>
