<svg viewBox="0 0 40 42" fill="none" xmlns="http://www.w3.org/2000/svg">
<path fill-rule="evenodd" clip-rule="evenodd" d="M2.66667 26.25V10.5H5.33333V7.875H8V5.25H10.6667V2.625H29.3333V5.25H32V7.875H34.6667V10.5H37.3333V26.25H34.6667V28.875H32V34.125H26.6667V36.75V42H24V36.75H21.3333V42H18.6667V36.75H16V42H13.3333V36.75V34.125H8V28.875H5.33333V26.25H2.66667ZM18.6667 28.875H17.3333H16V31.5H17.3333H20H22.6667H24V28.875H22.6667H21.3333V27.5625V26.25H18.6667V27.5625V28.875ZM10.6667 18.375V15.75H13.3333V13.1727H16V15.75V21V23.625H8V18.375H10.6667ZM32 23.625H24V21V15.75V13.1727H26.6667V15.75H29.3333V18.375H32V23.625Z" fill="white"/>
<path d="M10.6666 0L10.6667 2.625H7.99999L8.00008 5.24999H5.33342V7.87499L2.66667 7.875L2.66667 10.5H0V26.25H2.66667L2.66667 28.875H5.33334L5.33342 34.125H8.00008L8 36.75H10.6666V42H13.3333L13.3333 34.125L8.00008 34.125V28.875L5.33334 28.875V26.25L2.66667 26.25V10.5L5.33334 10.5L5.33342 7.87499H8.00008V5.24999L10.6667 5.25V2.625H29.3333V5.25L32 5.24999V7.87499H34.6667L34.6667 10.5L37.3333 10.5V26.25L34.6667 26.25V28.875L32 28.875V34.125L26.6667 34.125V42H29.3333V36.75H32V34.125H34.6667L34.6667 28.875H37.3334L37.3333 26.25H40V10.5H37.3333L37.3334 7.875L34.6667 7.87499V5.24999H32V2.625H29.3333L29.3332 0H10.6666Z" fill="black"/>
<path d="M16 36.75H18.6667V42H16V36.75Z" fill="black"/>
<path d="M21.3333 36.75H24V42H21.3333V36.75Z" fill="black"/>
<path d="M10.6666 15.75L13.3332 15.75V13.125H15.9998L16 23.625H8L7.99984 18.375H10.6665L10.6666 21V15.75Z" fill="black"/>
<path d="M29.3333 15.75L26.6665 15.75V13.125H23.9998L24 23.625H32V18.375H29.3333L29.3333 15.75Z" fill="black"/>
<path d="M16 28.875H18.6667L18.6665 26.25H21.3332L21.3333 28.875L23.9998 28.875V31.5H16V28.875Z" fill="black"/>
</svg>
