<svg viewBox="0 0 14 14" fill="currentColor" xmlns="http://www.w3.org/2000/svg">
<path fill-rule="evenodd" clip-rule="evenodd" d="M7.5 5.15698H6.5V4.15698H5.5V3.15698H4.5V2.15698H3.5V1.15698H2.52L2.5 0.156982H0.5V2.15698H1.5V3.15698H2.5V4.15698H3.5V5.15698H4.5V6.15698H5.5V7.15698H6.5V8.15698H7.5V9.15698H8.5V10.157H9.5V11.157H10.5V12.157H9.5V13.157H13.5V9.15698H12.5V10.157H11.5V9.15698H10.5V8.15698H9.5V7.15698H8.5V6.15698H7.5V5.15698ZM13.5 4.15698V0.156982H9.5V1.15698H10.5V2.15698H9.5V3.15698H8.5V4.15698H7.5V5.15698H8.5V6.15698H9.5V5.15698H10.5V4.15698H11.5V3.15698H12.5V4.15698H13.5ZM5.5 7.15698H4.5V8.15698H3.5V9.15698H2.5V10.157H1.5V11.177L0.5 11.157V13.157H2.5L2.52 12.157H3.5V11.157H4.5V10.157H5.5V9.15698H6.5V8.15698H5.5V7.15698Z" fill="currentColor"/>
</svg>
