<svg viewBox="0 0 30 30" fill="none" xmlns="http://www.w3.org/2000/svg">
<path d="M24.7059 19.4118H26.4706V15.8823H30V14.1176H26.4706V10.5882H24.7059V14.1176H19.4118V15.8823H24.7059V19.4118Z" fill="black"/>
<path d="M24.7059 7.05882H22.9412V10.5882H24.7059V7.05882Z" fill="black"/>
<path d="M22.9412 7.05882V5.29412H19.4118V7.05882H22.9412Z" fill="black"/>
<path d="M14.1176 10.5882H15.8824V5.29412H19.4118V3.52941H15.8824V0H14.1176V3.52941H10.5882V5.29412H14.1176V10.5882Z" fill="black"/>
<path d="M7.05882 5.29412V7.05882H10.5882V5.29412H7.05882Z" fill="black"/>
<path d="M7.05882 7.05882H5.29412V10.5882H7.05882V7.05882Z" fill="black"/>
<path d="M10.5882 15.8823V14.1176H5.29412V10.5882H3.52941V14.1176H0V15.8823H3.52941V19.4118H5.29412V15.8823H10.5882Z" fill="black"/>
<path d="M7.05882 22.9412V24.7059H10.5882V22.9412H7.05882Z" fill="black"/>
<path d="M5.29412 22.9412H7.05882V19.4118H5.29412V22.9412Z" fill="black"/>
<path d="M10.5882 24.7059V26.4706H14.1176V30H15.8824V26.4706H19.4118V24.7059H15.8824V19.4118H14.1176V24.7059H10.5882Z" fill="black"/>
<path d="M22.9412 24.7059V22.9412H19.4118V24.7059H22.9412Z" fill="black"/>
<path d="M22.9412 22.9412H24.7059V19.4118H22.9412V22.9412Z" fill="black"/>
<path d="M19.4117 14.1175H24.7058V10.5881H22.9411V7.05865H19.4117V5.29395H15.8823V10.5881H14.1176V5.29395H10.5882V7.05865H7.05877V10.5881H5.29407V14.1175H10.5882V15.8822H5.29407V19.4116H7.05877V22.941H10.5882V24.7057H14.1176V19.4116H15.8823V24.7057H19.4117V22.941H22.9411V19.4116H24.7058V15.8822H19.4117V14.1175Z" fill="#4AF626"/>
</svg>
