<svg viewBox="0 0 48 35" fill="none" xmlns="http://www.w3.org/2000/svg" >
<path d="M24.0001 29.3337H10.6667V26.667H13.3334V24.0003H16.0001V21.3337H13.3334V18.667H10.6667V13.3337H8.00008V10.667H5.33342V8.00033H2.66675V5.33366H8.00008V8.00033H16.0001V10.667H21.3334V8.00033H24.0001V5.33366H26.6667V2.66699H34.6668V5.33366H40.0001V8.00033H37.3334V13.3337H34.6668V21.3337H32.0001V24.0003H29.3334V26.667H24.0001V29.3337Z" fill="#00ACEE"/>
<path d="M21.3333 5.33333H24V8H21.3333V5.33333Z" fill="black"/>
<path d="M24 2.66667H26.6667V5.33333H24V2.66667Z" fill="black"/>
<path d="M40 5.33333H42.6667V8H40V5.33333Z" fill="black"/>
<path d="M32 21.3333H34.6667V24H32V21.3333Z" fill="black"/>
<path d="M29.3333 24H32V26.6667H29.3333V24Z" fill="black"/>
<path d="M8 26.6667H10.6667V29.3333H8V26.6667Z" fill="black"/>
<path d="M10.6667 24H13.3333V26.6667H10.6667V24Z" fill="black"/>
<path d="M13.3333 21.3333H16V24H13.3333V21.3333Z" fill="black"/>
<path d="M10.6667 18.6667H13.3333V21.3333H10.6667V18.6667Z" fill="black"/>
<path d="M5.33333 10.6667H8V13.3333H5.33333V10.6667Z" fill="black"/>
<path d="M2.66667 8H5.33333V10.6667H2.66667V8Z" fill="black"/>
<path d="M0 5.33333H2.66667V8H0V5.33333Z" fill="black"/>
<path d="M24 32V29.3333H10.6667V32H24Z" fill="black"/>
<path d="M29.3333 29.3333V26.6667H24V29.3333H29.3333Z" fill="black"/>
<path d="M37.3333 13.3333H34.6667V21.3333H37.3333V13.3333Z" fill="black"/>
<path d="M40 8H37.3333V13.3333H40V8Z" fill="black"/>
<path d="M34.6667 2.66667V5.33333H40V2.66667H34.6667Z" fill="black"/>
<path d="M26.6667 0V2.66667H34.6667V0H26.6667Z" fill="black"/>
<path d="M16 8V10.6667H21.3333V8H16Z" fill="black"/>
<path d="M8 5.33333V8H16V5.33333H8Z" fill="black"/>
<path d="M2.66667 2.66667V5.33333H8V2.66667H2.66667Z" fill="black"/>
<path d="M8 18.6667H10.6667V13.3333H8V18.6667Z" fill="black"/>
</svg>
