<svg viewBox="0 0 47 31" fill="none" xmlns="http://www.w3.org/2000/svg">
<path d="M30.2143 7.55357H32.7321V5.03571H30.2143V7.55357Z" fill="#33FF33"/>
<path d="M32.7321 10.0714H35.25V7.55357H32.7321V10.0714Z" fill="#33FF33"/>
<path d="M32.7321 22.6607H35.25V20.1429H32.7321V22.6607Z" fill="#33FF33"/>
<path d="M30.2143 25.1786H32.7321V22.6607H30.2143V25.1786Z" fill="#33FF33"/>
<path d="M25.1786 12.5893H27.6964V10.0714H25.1786V12.5893Z" fill="#33FF33"/>
<path d="M25.1786 20.1429H27.6964V17.625H25.1786V20.1429Z" fill="#33FF33"/>
<path d="M37.7679 10.0714H35.25V20.1429H37.7679V10.0714Z" fill="#33FF33"/>
<path d="M30.2143 12.5893H27.6964V17.625H30.2143V12.5893Z" fill="#33FF33"/>
<path d="M12.5893 27.6964V30.2143H17.625V27.6964H12.5893Z" fill="#33FF33"/>
<path d="M7.55357 25.1786V27.6964H12.5893V25.1786H7.55357Z" fill="#33FF33"/>
<path d="M2.51786 22.6607V25.1786H7.55357V22.6607H2.51786Z" fill="#33FF33"/>
<path d="M2.51786 7.55357H0V22.6607H2.51786V7.55357Z" fill="#33FF33"/>
<path d="M7.55357 7.55357V5.03571H2.51786V7.55357H7.55357Z" fill="#33FF33"/>
<path d="M12.5893 5.03571V2.51786H7.55357V5.03571H12.5893Z" fill="#33FF33"/>
<path d="M17.625 2.51786V0H12.5893V2.51786H17.625Z" fill="#33FF33"/>
<path d="M17.625 27.6964H20.1429V2.51786H17.625V27.6964Z" fill="#33FF33"/>
<path d="M7.55354 7.55329H2.51782V22.6604H7.55354V25.1783H12.5892V27.6961H17.625V2.51758H12.5892V5.03544H7.55354V7.55329Z" fill="#33FF33"/>
<path d="M39.4465 5.03544H41.9644V2.51758H39.4465V5.03544Z" fill="#33FF33"/>
<path d="M39.4465 27.6961H41.9644V25.1783H39.4465V27.6961Z" fill="#33FF33"/>
<path d="M41.9644 25.1783H44.4822V20.1426H41.9644V25.1783Z" fill="#33FF33"/>
<path d="M47.0001 10.0711H44.4822V20.1426H47.0001V10.0711Z" fill="#33FF33"/>
<path d="M44.4822 5.03544H41.9644V10.0711H44.4822V5.03544Z" fill="#33FF33"/>
</svg>
