<svg fill="currentColor" xmlns="http://www.w3.org/2000/svg" viewBox="0 0 512 512" x="0px" y="0px"><title>equipment wizard robe</title><path d="M373.67,91.23a30.89,30.89,0,0,0-28.26-13.89c-42.07,3.42-60.7,25.74-60.93,26a10.17,10.17,0,0,1-15.8-12.8c1.19-1.48,26-31.23,80.11-33.81a7.79,7.79,0,0,0,7.13-10c-5.9-18.41-26.5-30.05-46.13-22.21C271,40,230.88,63.13,212,74.54a20,20,0,0,1-22-.86L178.7,65.63a30,30,0,0,0-46,15.36l-.14.42c-17,58.91-66.87,140.73-90.34,177.35-8.09,12.61-5.69,29.51,5.75,39a150.86,150.86,0,0,0,29.14,18.6,10.49,10.49,0,0,0,14.84-7c14.78-61.63,25.47-113.15,25.68-114.15a10.17,10.17,0,0,1,19.92,4.11c-1.28,6.19-25.2,121.49-51.43,214a29.83,29.83,0,0,0,7.48,24.54c20.24,22,48.46,35.5,68.91,43.07,12.77,4.72,26.24-5,26.23-18.87-.1-175.8,4.33-259.89,6.67-292a17.45,17.45,0,0,1,17.24-16.36h0a17.48,17.48,0,0,1,17.28,17.44c1.75,121.43,15,250.87,20.6,301.09a19.64,19.64,0,0,0,24.1,17.17c68.84-17.08,136.68-59.65,171.14-83.62a25.87,25.87,0,0,0,4.61-38.05c-10.59-12.18-20.8-24.42-28.78-34.14a15.27,15.27,0,0,0-17-4.65c-5.47,2-10.5,3.86-15,5.56a42.88,42.88,0,0,1-57-31.11C321,250,312.29,194.63,312.2,194.08a10.17,10.17,0,1,1,20.09-3.16c.09.55,8.68,55,20,107.71a23.14,23.14,0,0,0,7.26,12.68,22.58,22.58,0,0,0,22.81,4.16c17.76-6.65,43.07-15.8,71.73-25.2l9.24-4.51a20.39,20.39,0,0,0,9.11-27.33C442.1,197.38,397.72,127.74,373.67,91.23Z"></path></svg>
