<svg xmlns="http://www.w3.org/2000/svg" viewBox="0 0 512 512" x="0px" y="0px"><title>equipment glove</title><path fill="currentColor"  d="M327.39,421.45h42.14a39.26,39.26,0,0,0,38-31.22c3.41-15.9,5.84-36.68,5.84-63.62V104.75a20.42,20.42,0,1,0-40.83,0v75.87a10.45,10.45,0,0,1-9.85,10.59A10.18,10.18,0,0,1,352.18,181V43.32a19.39,19.39,0,0,0-19.39-19.39H332A19.39,19.39,0,0,0,312.6,43.32v137.3a10.45,10.45,0,0,1-9.86,10.59A10.17,10.17,0,0,1,292.26,181V43.32a19.39,19.39,0,0,0-19.39-19.39h-2.81a19.39,19.39,0,0,0-19.39,19.39v137.3a10.46,10.46,0,0,1-9.86,10.59A10.17,10.17,0,0,1,230.33,181V43.32a19.4,19.4,0,0,0-38.79,0V168.09a112.85,112.85,0,0,0,4.64,31.5c3.84,13.24,6.29,29,6.32,47.74a10.44,10.44,0,0,1-9.89,10.61,10.17,10.17,0,0,1-10.44-10.16c0-24.32-4.51-42.67-10.57-56.35-6.53-14.75-19.26-26.1-34.93-30A43.42,43.42,0,0,0,111,162.72a18.77,18.77,0,0,0-9.15,28.13c9.12,13.54,21.85,36.68,31,70.49a192,192,0,0,1,5.93,33.81c2.5,29,12,103.17,45.2,136.73a41.05,41.05,0,0,1,11.76,28.87v17.12a10.2,10.2,0,0,0,10.2,10.2H376a10.2,10.2,0,0,0,10.21-10.2V455.46a13.8,13.8,0,0,0-14.32-13.72c-.93,0-1.87.05-2.83.05H327.82a10.47,10.47,0,0,1-10.6-9.86A10.17,10.17,0,0,1,327.39,421.45Zm-65.91,20.34H260.4a10.17,10.17,0,1,1,0-20.34h1.08a10.17,10.17,0,0,1,0,20.34Z"></path></svg>
