<svg xmlns="http://www.w3.org/2000/svg" viewBox="0 0 512 512" x="0px" y="0px"><title>equipment silmple helm armor</title><path fill="currentColor"  d="M115.34,478a78.6,78.6,0,0,0,38.46,10.06h21.61a4.53,4.53,0,0,0,2.73-8.15c-40.59-30.53-75.58-64.16-90.74-79.28a18.42,18.42,0,0,0-20.3-3.83,71.23,71.23,0,0,0-20.58,13.05,12,12,0,0,0-.89,16.49C63.07,446.85,94.93,466.6,115.34,478Z"></path><path d="M116.18,390.34c20.78,25.34,51.07,50.1,70.42,64.8a11.6,11.6,0,0,0,18.62-9.25V340.81A31.68,31.68,0,0,0,195.54,318L146,270.34a25.63,25.63,0,0,1-7.84-18.45V231.27a8.83,8.83,0,0,1,12.41-8.08l65.39,29a19.93,19.93,0,0,1,11.19,13.07l4.92,18.35a18,18,0,0,0,17.37,13.32h13a18,18,0,0,0,17.37-13.32l4.92-18.35A19.93,19.93,0,0,1,296,252.16l65.39-29a8.83,8.83,0,0,1,12.41,8.08v20.62A25.63,25.63,0,0,1,366,270.34L316.46,318a31.68,31.68,0,0,0-9.68,22.78V445.89a11.6,11.6,0,0,0,18.62,9.25c19.35-14.7,49.64-39.46,70.42-64.8a72.36,72.36,0,0,0,15.3-33.73c7.16-41.76,22-151.7-3.2-234C376.24,19.07,256,23.94,256,23.94s-120.24-4.87-151.92,98.7c-25.16,82.27-10.36,192.21-3.2,234A72.36,72.36,0,0,0,116.18,390.34Z"></path><path d="M424.6,400.66c-15.16,15.12-50.15,48.75-90.74,79.28a4.53,4.53,0,0,0,2.73,8.15H358.2A78.6,78.6,0,0,0,396.66,478c20.41-11.43,52.27-31.18,69.71-51.66a12,12,0,0,0-.89-16.49,71.23,71.23,0,0,0-20.58-13.05A18.42,18.42,0,0,0,424.6,400.66Z"></path></svg>
