<svg xmlns="http://www.w3.org/2000/svg" viewBox="0 0 512 512" x="0px" y="0px"><title>equipment star necklace</title><path fill="currentColor"  d="M91.08,352.59a61.64,61.64,0,0,0,23.5-8.23,1.88,1.88,0,0,0,.46-2.79v0c-3.4-4.29-6.6-8.73-9.5-13a8.83,8.83,0,0,0-16.09,4.22c-.45,5.12-1.07,10.55-1.92,16v0A3.25,3.25,0,0,0,91.08,352.59Z"></path><path d="M182,406.6c5.57-4.72,11.68-9.64,17.88-14.15a8.84,8.84,0,0,0-4.2-15.9c-6.89-.82-13.88-1.95-20.46-3.18a2.81,2.81,0,0,0-3.35,2.61v0a61.4,61.4,0,0,0,5.75,29.66A2.83,2.83,0,0,0,182,406.6Z"></path><path d="M119.67,466.9a1.88,1.88,0,0,0-.47,2.79l0,0c3.39,4.3,6.6,8.73,9.5,13a8.83,8.83,0,0,0,16.09-4.22c.44-5.12,1.06-10.55,1.91-16,.1-.62.21-1.23.32-1.84a1.88,1.88,0,0,0-2.07-2.2A61.49,61.49,0,0,0,119.67,466.9Z"></path><path d="M62.4,435.28v0a61.58,61.58,0,0,0-5.24-28.54,3.69,3.69,0,0,0-5.74-1.34c-5.34,4.51-11.15,9.16-17,13.45a8.83,8.83,0,0,0,4.19,15.9c6.89.81,13.88,1.94,20.46,3.18A2.83,2.83,0,0,0,62.4,435.28Z"></path><path d="M73.22,364.51c-5.1-.6-10.17-1.42-14.91-2.3a8.28,8.28,0,0,0-7.88,13.47c3.1,3.69,6.3,7.71,9.32,11.86A77,77,0,0,1,74.2,437.18c-.52,9.43-1.48,21-3.21,32.08A8.27,8.27,0,0,0,84.3,477c8.78-6.93,18.42-13.45,26.37-18.53A77.05,77.05,0,0,1,161,446.75c5.11.6,10.17,1.42,14.91,2.31a8.28,8.28,0,0,0,7.88-13.48c-3.1-3.69-6.29-7.7-9.32-11.86A77,77,0,0,1,160,374.08c.53-9.43,1.48-21,3.22-32.08a8.27,8.27,0,0,0-13.32-7.78c-8.78,6.93-18.41,13.45-26.37,18.53A77.05,77.05,0,0,1,73.22,364.51Z"></path><path d="M397.12,28.33c-.9.26-1.8.55-2.7.84-20.58,6.81-41.71,11.68-63.25,13.5-5.1.43-10.42.84-15.84,1.17a360.3,360.3,0,0,1-64.68-1.75C215,37.88,121.07,33.51,62.2,92.43c0,0-2.56,2.43-6.41,7C4,160.86,17,255.36,82.85,300.33a188.44,188.44,0,0,0,27.75,15.73,21,21,0,0,0,29.68-20c0-.56-.06-1.13-.11-1.72A21.27,21.27,0,0,0,130,278.12c-17.79-10.73-62-43.18-51.14-95.7,0,0,15.59-74.93,110.8-93.74a204,204,0,0,1,42.86-3.62c18.35.3,52.09,1.29,77.05,4.49a189.87,189.87,0,0,0,46.86.42c14.23-1.7,30.65-5.16,44.94-12,7.57-3.63,16.35-4,23.86-.25a31.3,31.3,0,0,1,6.52,4.4,28.17,28.17,0,0,1,9,16.49c3.6,20.66-8.24,90.23-55,156.92,0,0-42.65,61.88-168.06,71.07-9,.66-17,6.21-19.34,15.17-.06.22-.11.43-.16.65a21,21,0,0,0,15.9,25.66c33.05,6.8,115.6,13.3,174.78-42.52,0,0,74.9-62.79,95.71-177.43a252.83,252.83,0,0,0,3.28-52.31C485.63,48.66,441.17,15.19,397.12,28.33Z"></path></svg>
