<svg viewBox="0 0 11 9" fill="none" xmlns="http://www.w3.org/2000/svg">
<path d="M7.33767 1.66671C7.11311 1.53718 6.87569 1.43849 6.61904 1.36447C6.58696 1.35831 6.56129 1.34597 6.52921 1.3398C6.25973 1.26578 5.97098 1.22878 5.67582 1.22878C5.41275 1.22878 5.16251 1.25961 4.91227 1.31512C4.86736 1.32746 4.82244 1.33364 4.78394 1.34597C4.54011 1.41382 4.30913 1.50634 4.09097 1.62353C3.07718 2.16017 2.39062 3.2026 2.39062 4.39306C2.39062 5.60202 3.09643 6.65679 4.13589 7.18725C4.36047 7.30445 4.60428 7.39698 4.86095 7.45866V7.32295L4.86736 6.82333C4.60429 6.74314 4.36047 6.62595 4.1423 6.47174C3.46858 6.00913 3.03227 5.25044 3.03227 4.39923C3.03227 3.52951 3.48783 2.75849 4.1808 2.30203C4.39896 2.154 4.6492 2.03681 4.91227 1.96279C5.1561 1.88878 5.41275 1.85176 5.67582 1.85176C5.97098 1.85176 6.2533 1.90111 6.5228 1.98746C6.78587 2.07382 7.0297 2.19718 7.24785 2.35138C7.89591 2.814 8.31939 3.56035 8.31939 4.39923C8.31939 5.25044 7.88307 6.00913 7.21577 6.47174C6.99761 6.62595 6.74737 6.74314 6.4843 6.82949L6.47788 7.3723V7.47099C6.73454 7.40931 6.97836 7.31678 7.20935 7.19958C8.24881 6.66913 8.96103 5.61436 8.96103 4.4054C8.96103 3.23344 8.30656 2.21569 7.33767 1.66671Z"/>
<path d="M10.7766 7.06388C10.7574 7.01454 10.7253 6.99603 10.6868 6.99603C10.6419 6.99603 10.5969 7.03922 10.552 7.13173C10.5071 7.22426 10.4815 7.29211 10.4686 7.34146C10.3852 7.55117 10.3082 7.70538 10.244 7.81023C10.1799 7.9151 10.0836 8.03229 9.94888 8.16182C9.88472 8.22967 9.78206 8.29752 9.64731 8.3592C9.51256 8.42088 9.35858 8.4579 9.17891 8.45173L7.95979 8.4394C7.63897 8.4394 7.43365 8.37772 7.34381 8.26052C7.25399 8.14332 7.20907 7.96444 7.20907 7.72388V7.48949V7.40314L7.21549 6.76164V6.68146L7.24758 2.65362V2.64746V2.2712C7.24758 2.14784 7.27324 2.04914 7.32457 1.97512L7.33098 1.96896C7.3759 1.90727 7.43365 1.86409 7.51065 1.83326C7.68389 1.75923 7.88922 1.69755 8.13304 1.64821C8.24211 1.62353 8.32553 1.5927 8.37685 1.55568C8.42819 1.51868 8.45386 1.46934 8.46028 1.41999C8.46028 1.37064 8.4346 1.3398 8.38328 1.32129C8.33195 1.30279 8.26137 1.29046 8.17795 1.29046C8.0432 1.29046 7.92129 1.29046 7.81222 1.29662L7.82505 0.0814868L7.35023 0.0753186L7.34381 0.759987C7.34381 1.0499 7.04224 1.27812 6.6701 1.27812C6.29794 1.27812 5.99637 1.03756 6.00278 0.75382V0.0691504L5.58572 0.0629822L5.5793 0.747653C5.5793 1.03756 5.27132 1.26578 4.90558 1.26578C4.53342 1.25961 4.23826 1.02522 4.23826 0.741487L4.25111 0.0506458H3.77628L3.76345 1.26578C3.75062 1.26578 3.74421 1.26578 3.73137 1.26578C3.60947 1.25961 3.45546 1.25344 3.2758 1.24727C3.19239 1.24727 3.12181 1.25344 3.07048 1.27194C3.01915 1.29046 2.99349 1.32129 2.99349 1.37064C2.99349 1.42615 3.01915 1.46933 3.07048 1.5125C3.12181 1.54952 3.20522 1.58653 3.31431 1.60503C3.55813 1.66055 3.76346 1.7284 3.9367 1.80241C4.00728 1.83326 4.05862 1.87643 4.09711 1.92578C4.11635 1.95046 4.12919 1.97512 4.14202 1.99979C4.1741 2.06764 4.18694 2.14784 4.18694 2.24652L4.18053 2.59811V2.72147L4.14844 6.5766V6.77397L4.14202 7.32912V7.49566V7.70538C4.14202 7.94594 4.09069 8.12481 4.00087 8.23584C3.91103 8.34687 3.69929 8.40855 3.37847 8.40238L2.15935 8.39005C1.97969 8.39005 1.8257 8.35304 1.69094 8.29135C1.5562 8.2235 1.45996 8.15566 1.38938 8.08781C1.26105 7.95828 1.1648 7.83491 1.10064 7.73005C1.04289 7.62519 0.965895 7.47099 0.882481 7.26126C0.869649 7.21809 0.843983 7.14408 0.799068 7.05155C0.754153 6.95902 0.715655 6.90969 0.67074 6.90969C0.632241 6.90969 0.600159 6.93435 0.58091 6.97753C0.561661 7.0207 0.548828 7.07005 0.548828 7.11323C0.548828 7.1194 0.548828 7.13173 0.555245 7.14408C0.561661 7.15641 0.561661 7.16875 0.561661 7.17491C0.606576 7.37846 0.645074 7.55734 0.677156 7.72388C0.709238 7.88426 0.74132 8.03846 0.76057 8.1865C0.786235 8.33453 0.799068 8.48873 0.811901 8.64911C0.818317 8.70463 0.83115 8.74781 0.843983 8.79097C0.863232 8.82799 0.895314 8.84649 0.946646 8.84649C1.27388 8.84649 1.58829 8.84649 1.88987 8.84032C2.19143 8.83416 2.48017 8.83416 2.76249 8.82799C3.04482 8.82799 3.30789 8.82182 3.56455 8.81566C3.8212 8.80949 4.07145 8.80949 4.32169 8.80949C4.47568 8.80949 4.65534 8.81566 4.85424 8.82182V8.81566L4.86066 7.75472V7.61902L4.86707 7.1194V6.97137L4.91199 2.33905V2.26503V2.04914H6.52251V2.2897V2.31438L6.48402 7.03305V7.12557L6.47761 7.66837V7.76706L6.47119 8.84032V8.84649C6.6701 8.84032 6.84333 8.84032 7.00375 8.84032C7.25399 8.84032 7.50423 8.84649 7.76089 8.85884C8.01754 8.87117 8.28703 8.87734 8.56293 8.8835C8.83885 8.88967 9.13399 8.89584 9.43557 8.90817C9.73715 8.92052 10.0516 8.92669 10.3788 8.92669C10.4301 8.92669 10.4622 8.90817 10.4815 8.87117C10.5007 8.83416 10.5071 8.78481 10.5199 8.73547C10.5328 8.5751 10.552 8.42088 10.5777 8.27285C10.6034 8.12482 10.6354 7.97061 10.6675 7.81023C10.706 7.64987 10.7445 7.47099 10.7958 7.26743C10.7958 7.26126 10.7958 7.24893 10.8023 7.23659C10.8023 7.22426 10.8087 7.21809 10.8087 7.20575C10.8023 7.15641 10.7958 7.11323 10.7766 7.06388ZM6.52893 1.67288V1.64821V1.58037H6.56102V1.67288H6.52893Z" />
</svg>
